<?xml version="1.0" encoding="UTF-8" standalone="no"?>
<!-- Created with Inkscape (http://www.inkscape.org/) -->

<svg
   width="75.893524mm"
   height="95.799034mm"
   viewBox="0 0 75.893524 95.799034"
   version="1.1"
   id="svg1"
   xml:space="preserve"
   xmlns:inkscape="http://www.inkscape.org/namespaces/inkscape"
   xmlns:sodipodi="http://sodipodi.sourceforge.net/DTD/sodipodi-0.dtd"
   xmlns="http://www.w3.org/2000/svg"
   xmlns:svg="http://www.w3.org/2000/svg"><sodipodi:namedview
     id="namedview1"
     pagecolor="#ffffff"
     bordercolor="#000000"
     borderopacity="0.25"
     inkscape:showpageshadow="2"
     inkscape:pageopacity="0.0"
     inkscape:pagecheckerboard="0"
     inkscape:deskcolor="#d1d1d1"
     inkscape:document-units="mm" /><defs
     id="defs1" /><g
     inkscape:label="Layer 1"
     inkscape:groupmode="layer"
     id="layer1"
     transform="translate(-19.243037,-166.32978)"><path
       style="fill:#0c54b9;stroke:none"
       d="m 55.664693,166.3394 c -0.497832,0.0776 -0.894054,0.5118 -0.904084,1.02349 -0.01093,0.55776 0.550298,1.08178 1.111051,1.00119 0.480258,-0.069 0.879615,-0.42842 0.926762,-0.92358 0.05661,-0.59457 -0.535795,-1.19425 -1.133729,-1.1011 m 3.673672,0.0784 c -0.499209,0.0496 -0.922644,0.42631 -0.951793,0.94513 -0.03006,0.53501 0.493348,1.13793 1.055277,1.07871 0.531219,-0.056 0.960265,-0.48836 0.976368,-1.02697 0.01633,-0.54636 -0.537813,-1.05077 -1.079852,-0.99687 m -7.192118,0.30981 c -0.49302,0.0711 -0.876918,0.44377 -0.926942,0.94577 -0.05977,0.59982 0.490275,1.19346 1.108038,1.10468 0.465667,-0.0669 0.854944,-0.39547 0.923588,-0.87184 0.08796,-0.61043 -0.46153,-1.27141 -1.104684,-1.17861 m 10.684693,0.20725 c -0.498312,0.0656 -0.907743,0.45267 -0.919577,0.97136 -0.01171,0.51337 0.520138,1.08272 1.048932,1.02697 0.492422,-0.0519 0.923963,-0.47321 0.954789,-0.97523 0.03421,-0.55717 -0.522389,-1.0971 -1.084144,-1.0231 m -14.073785,0.62058 c -0.516468,0.0745 -0.923623,0.46137 -0.954809,0.99751 -0.03445,0.59223 0.543852,1.13803 1.135905,1.05294 0.465668,-0.0669 0.854947,-0.39548 0.923588,-0.87185 0.08722,-0.60529 -0.465623,-1.27081 -1.104684,-1.1786 m 17.437006,0.31073 c -0.351216,0.0463 -0.71055,0.2629 -0.839267,0.60917 -0.23132,0.62229 0.286661,1.43838 0.994493,1.33752 0.46634,-0.0665 0.850127,-0.42281 0.900991,-0.89772 0.05992,-0.55951 -0.482424,-1.12455 -1.056217,-1.04897 m -20.670872,0.87897 c -0.201034,0.0279 -0.379727,0.0933 -0.543271,0.21555 -0.84396,0.63074 -0.263809,2.01099 0.776109,1.86113 1.321657,-0.19046 1.07058,-2.25756 -0.232838,-2.07668 m 23.878867,0.44211 c -0.437601,0.0327 -0.839523,0.34575 -0.919334,0.7886 -0.09989,0.55427 0.385222,1.19074 0.971076,1.15876 0.537971,-0.0294 0.962006,-0.46512 0.976388,-1.00353 0.01379,-0.51644 -0.525169,-0.98141 -1.02813,-0.94383 m -26.879895,1.1361 c -0.478581,0.0629 -0.882249,0.37573 -0.971079,0.86843 -0.112923,0.62635 0.430875,1.33925 1.100434,1.26025 0.511573,-0.0604 0.933453,-0.4273 1.001481,-0.9498 0.08056,-0.61878 -0.490366,-1.263 -1.130836,-1.17888 m 29.829181,0.54385 c -0.454927,0.0599 -0.850797,0.39368 -0.900992,0.86787 -0.05607,0.52971 0.454877,1.11094 1.004476,1.05285 0.494017,-0.0522 0.905678,-0.4442 0.928656,-0.94936 0.02354,-0.51742 -0.508866,-1.04029 -1.03214,-0.97136 m -14.875784,0.10414 c -0.801377,0.0936 -0.639368,1.29798 0.155226,1.19875 0.75073,-0.0937 0.584041,-1.28511 -0.155226,-1.19875 m -3.05277,0.15521 c -0.806732,0.0914 -0.678398,1.29703 0.129355,1.19879 0.774378,-0.0942 0.623198,-1.28404 -0.129355,-1.19879 m 6.10554,0.10478 c -0.777508,0.0679 -0.672285,1.25526 0.103483,1.1719 0.751729,-0.0808 0.627964,-1.23577 -0.103483,-1.1719 m -9.080697,0.38587 c -0.76947,0.11475 -0.652884,1.36443 0.103484,1.24767 0.249845,-0.0386 0.501433,-0.20477 0.571018,-0.45715 0.110254,-0.39988 -0.249905,-0.85384 -0.674502,-0.79052 m 12.004112,0.23503 c -0.766556,0.0669 -0.661522,1.20749 0.07761,1.14811 0.733043,-0.0589 0.656257,-1.21219 -0.07761,-1.14811 m -23.775384,0.38575 c -1.092769,0.17159 -1.294865,1.74813 -0.206968,2.11233 0.186562,0.0624 0.378478,0.052 0.569161,0.0198 1.312596,-0.22136 0.923913,-2.33411 -0.362193,-2.13216 m 8.847857,0.26178 c -0.8272,0.21697 -0.399268,1.40495 0.388064,1.21358 0.783704,-0.19049 0.371873,-1.4129 -0.388064,-1.21358 m 17.592232,0.33401 c -0.742759,0.14279 -0.424202,1.25028 0.310451,1.09023 0.723736,-0.15767 0.401098,-1.22702 -0.310451,-1.09023 m 8.951342,0.0511 c -0.472631,0.0682 -0.840692,0.43343 -0.869809,0.9199 -0.03154,0.52701 0.494086,1.06962 1.025034,1.00148 0.46034,-0.0591 0.843477,-0.42715 0.877275,-0.898 0.03855,-0.53705 -0.474519,-1.10389 -1.0325,-1.02338 m -29.078925,0.77771 c -0.811649,0.11047 -0.683921,1.3818 0.103484,1.29007 0.841876,-0.0981 0.722254,-1.40246 -0.103484,-1.29007 m 22.869902,0.41946 c -0.740069,0.0108 -0.692483,1.13855 0.05174,1.11938 0.722087,-0.0186 0.655457,-1.12969 -0.05174,-1.11938 m -31.717759,0.40673 c -0.461782,0.0721 -0.856021,0.3927 -0.945128,0.86825 -0.124478,0.66432 0.479642,1.38614 1.177966,1.28578 0.387323,-0.0557 0.783338,-0.31297 0.91718,-0.69075 0.25974,-0.73313 -0.347863,-1.58852 -1.150018,-1.46328 m 20.256937,8.6e-4 c -0.622788,0.11328 -0.483251,1.12311 0.155226,1.01409 0.663416,-0.11328 0.490499,-1.13155 -0.155226,-1.01409 m -2.664706,0.1567 c -0.669164,0.1547 -0.381612,1.15181 0.259089,0.98851 0.64982,-0.16563 0.377879,-1.13576 -0.259089,-0.98851 m 5.148315,0.0831 c -0.586343,0.22434 -0.239037,1.18111 0.362193,0.96045 0.645848,-0.23705 0.245357,-1.19291 -0.362193,-0.96045 m -7.709537,0.35679 c -0.652742,0.15865 -0.344823,1.17852 0.310452,1.00661 0.674239,-0.17689 0.343964,-1.16568 -0.310452,-1.00661 m -8.64089,0.0755 c -0.831934,0.11058 -0.710118,1.40988 0.103484,1.31922 0.837439,-0.0933 0.73747,-1.431 -0.103484,-1.31922 m 33.994401,0.0515 c -0.431778,0.0628 -0.805555,0.39754 -0.849332,0.84229 -0.05167,0.52496 0.41996,1.11909 0.978687,1.05312 0.497516,-0.0587 0.896692,-0.46282 0.896692,-0.97551 0,-0.4992 -0.519082,-0.99366 -1.026047,-0.9199 m -15.03101,0.0266 c -0.652874,0.12234 -0.456461,1.09031 0.206968,0.96215 0.614207,-0.11865 0.369545,-1.07018 -0.206968,-0.96215 m 8.744374,0.41419 c -0.766117,0.11908 -0.560482,1.2395 0.206968,1.09125 0.650746,-0.12571 0.422619,-1.18912 -0.206968,-1.09125 m -21.472871,0.15969 c -0.678341,0.20948 -0.3348,1.23346 0.336322,1.02305 0.656023,-0.20568 0.289324,-1.21626 -0.336322,-1.02305 m 15.082752,0.25562 c -0.605318,0.14341 -0.3906,1.09958 0.206967,0.95553 0.61002,-0.14705 0.387429,-1.09635 -0.206967,-0.95553 m -17.359394,0.77615 c -0.68371,0.16618 -0.354061,1.18159 0.310451,1.03681 0.698449,-0.15216 0.376553,-1.2038 -0.310451,-1.03681 m -6.209023,0.0759 c -0.828198,0.0834 -0.774463,1.39894 0.05174,1.34927 0.886964,-0.0533 0.822962,-1.43736 -0.05174,-1.34927 m 25.845058,0.23387 c -0.61607,0.0884 -0.472425,1.06615 0.129355,0.96143 0.599465,-0.10433 0.467269,-1.04708 -0.129355,-0.96143 m 6.338378,0.36145 c -0.739646,0.0831 -0.596535,1.16547 0.129355,1.07372 0.673528,-0.0851 0.532173,-1.14801 -0.129355,-1.07372 m -38.547684,0.079 c -0.649669,0.15371 -0.41093,1.12976 0.232838,0.98501 0.647623,-0.14562 0.382646,-1.13064 -0.232838,-0.98501 m 44.756707,0.23108 c -1.20754,0.20764 -0.94388,2.04311 0.25871,1.84226 1.16179,-0.19403 0.87143,-2.03659 -0.25871,-1.84226 m -22.145515,0.0794 c -0.730766,0.17402 -0.375148,1.24199 0.335943,1.04669 0.642788,-0.17654 0.299486,-1.19801 -0.335943,-1.04669 m -2.069675,0.0525 c -0.737286,0.18822 -0.32921,1.27858 0.377084,1.06603 0.652846,-0.19647 0.270997,-1.23147 -0.377084,-1.06603 m -10.063791,0.1544 c -0.689237,0.15934 -0.397216,1.20565 0.258709,1.06279 0.721074,-0.15704 0.454788,-1.22773 -0.258709,-1.06279 m 14.151398,1.1e-4 c -0.466175,0.11256 -0.488475,0.72793 -0.13159,0.97842 0.116378,0.0817 0.35035,0.0718 0.482803,0.0362 0.651163,-0.17512 0.29286,-1.17012 -0.351213,-1.01459 m -2.095545,0.14143 c 0.06056,-0.0315 0.111957,-0.0505 0.181475,-0.0509 0.05043,-2.6e-4 0.104848,0.003 0.149336,0.0296 0.468046,0.27626 -0.331919,0.74852 -0.377582,0.27993 -0.0087,-0.0891 0.04242,-0.17073 0.04677,-0.25869 m -1.811363,-0.002 c 0.279136,0.0378 0.308515,0.55786 -0.02146,0.53415 -0.327382,-0.0235 -0.295801,-0.57712 0.02146,-0.53415 m -2.224502,0.0181 c -0.721282,0.20821 -0.337768,1.27218 0.362193,1.07386 0.690734,-0.19572 0.326109,-1.27256 -0.362193,-1.07386 m 6.027927,0.2422 c 0.05197,-0.0585 0.101023,-0.0924 0.181475,-0.10067 0.05969,-0.006 0.123989,-0.002 0.180598,0.0184 0.465613,0.17123 -0.117699,0.7566 -0.357343,0.33557 -0.05096,-0.0895 0.02112,-0.16966 -0.0047,-0.25327 m 9.75334,-0.0134 c -0.627579,0.10223 -0.455874,1.05904 0.181096,0.93594 0.565276,-0.10923 0.371819,-1.02602 -0.181096,-0.93594 m -7.373215,1.09998 v -0.0517 c 0.232254,0.0237 0.427215,-0.27871 0.432899,-0.49154 0.0069,-0.25857 -0.236037,-0.50864 -0.484641,-0.53848 -0.421963,-0.0507 -0.72125,0.40944 -0.520892,0.77628 0.138787,0.25412 0.32615,0.25671 0.572634,0.30549 m -8.019988,-0.93136 0.02587,0.28458 c -0.10925,0.0746 -0.226513,0.14754 -0.361694,0.0769 -0.165894,-0.0867 -0.158946,-0.316 0.01513,-0.38534 0.09338,-0.0372 0.219985,0.0228 0.320693,0.0239 m -2.354255,0.14305 c -0.697656,0.161 -0.413707,1.26025 0.254317,1.10961 0.749016,-0.1689 0.502269,-1.28421 -0.254317,-1.10961 m 10.244888,0.0202 c 0.287619,-0.0414 0.353907,0.42693 0.07528,0.46173 -0.336205,0.042 -0.40874,-0.41373 -0.07528,-0.46173 m -22.430095,0.10758 c -0.846498,0.0842 -0.807083,1.41571 0.05174,1.35066 0.880668,-0.0667 0.818795,-1.4372 -0.05174,-1.35066 m 12.52153,0.29835 c 0.02014,0.16296 -0.124927,0.55166 -0.335606,0.29125 -0.05369,-0.0664 -0.02659,-0.21113 -0.02659,-0.29125 h 0.362193 m 11.7453,-0.0379 c -0.664802,0.15876 -0.387179,1.19683 0.284663,1.03304 0.666211,-0.16241 0.356938,-1.18626 -0.284663,-1.03304 m -11.676312,0.26209 -0.0086,0.0172 0.0086,-0.0172 m 11.909252,0.009 0.05174,0.0517 -0.02587,0.0517 0.103483,0.0259 0.02587,0.28458 c -0.192554,0.0512 -0.428973,0.20359 -0.439806,-0.12936 l -0.07761,0.0259 0.129354,-0.28458 0.232839,-0.0259 m -20.205196,0.11588 c -0.693386,0.0801 -0.648936,1.20356 0.05174,1.13189 0.749916,-0.0767 0.681765,-1.21667 -0.05174,-1.13189 m 5.976185,0.001 c -0.511889,0.12194 -0.556582,0.77834 -0.157541,1.05605 0.142935,0.0995 0.371289,0.0819 0.530714,0.0369 0.669707,-0.18905 0.293088,-1.25165 -0.373173,-1.09293 m 25.793316,0.0517 c -0.654555,0.15594 -0.379783,1.18032 0.258709,1.02925 0.700505,-0.16575 0.425348,-1.19222 -0.258709,-1.02925 m -25.508736,0.32255 c 0.01901,0.0842 0.0896,0.18964 0.05967,0.27709 -0.109402,0.31964 -0.421066,0.0523 -0.421862,-0.17361 h 0.103484 v -0.10348 h 0.258709 m 21.240033,0.14315 c -0.590061,0.12934 -0.387073,1.04003 0.181096,0.90376 0.569262,-0.13653 0.391727,-1.02933 -0.181096,-0.90376 m -6.002056,0.76233 c 0.103977,0.0915 0.188963,0.24092 0.336341,0.26428 0.42238,0.067 0.846465,-0.28423 0.620884,-0.72986 -0.1802,-0.35597 -0.691675,-0.37646 -0.909257,-0.0517 -0.107649,0.16066 -0.06414,0.33929 -0.04797,0.51732 m -32.002363,-0.47688 c -0.655259,0.0722 -0.565194,1.10604 0.07761,1.034 0.672721,-0.0754 0.593024,-1.10791 -0.07761,-1.034 m 32.235178,0.19264 h 0.07761 v -0.10348 c 0.177835,-0.0555 0.549259,0.064 0.383052,0.32404 -0.165637,0.25911 -0.450006,-0.0156 -0.460664,-0.22056 m -17.592232,0.0396 c -0.745757,0.17765 -0.424104,1.30703 0.310451,1.12471 0.735948,-0.18267 0.402897,-1.29465 -0.310451,-1.12471 m 33.813308,0.10172 c -0.39482,0.0704 -0.75763,0.37364 -0.79741,0.78998 -0.0557,0.58271 0.51147,1.10052 1.08199,1.00047 1.12079,-0.19656 0.82521,-1.98837 -0.28458,-1.79045 m -44.006454,0.46698 c -0.924038,0.061 -0.806638,1.43003 0.103483,1.35543 0.837074,-0.0686 0.728085,-1.41035 -0.103483,-1.35543 m 10.425984,0.11604 -0.02587,0.0259 -0.103484,-0.12936 0.129355,0.10349 m 19.273861,-0.0121 c -0.648122,0.15799 -0.398097,1.16296 0.258691,1.00333 0.646312,-0.15708 0.354746,-1.15286 -0.258691,-1.00333 m -25.482884,0.0517 c -0.710165,0.16918 -0.425279,1.25953 0.258709,1.11113 0.741516,-0.16088 0.472034,-1.28521 -0.258709,-1.11113 m 25.560857,0.25615 c 0.25293,-0.0454 0.358871,0.36453 0.100768,0.42037 -0.270552,0.0585 -0.394083,-0.36775 -0.100768,-0.42037 m 5.458387,0.28708 c -0.573929,0.12987 -0.376076,1.02776 0.181097,0.89418 0.569154,-0.13645 0.384255,-1.02211 -0.181097,-0.89418 m -26.776412,0.0287 c -0.743606,0.21493 -0.379338,1.37351 0.362194,1.13915 0.731286,-0.23111 0.349762,-1.34494 -0.362194,-1.13915 m 31.17447,0.0258 c -0.679459,0.0546 -0.579487,1.11929 0.07761,1.06165 0.673996,-0.0591 0.603728,-1.11638 -0.07761,-1.06165 m -15.60017,0.3975 0.02587,0.0259 -0.02587,-0.0259 m 7.347344,0.35284 c -0.592069,0.0565 -0.510301,1.06199 0.106856,1.01016 0.687948,-0.0578 0.555215,-1.07336 -0.106856,-1.01016 m -5.795088,0.24219 0.02587,0.0259 -0.02587,-0.0259 m 5.778937,0.0421 c 0.263984,-0.0925 0.463536,0.37747 0.170258,0.46168 -0.287447,0.0825 -0.469883,-0.35668 -0.170258,-0.46168 m -28.67471,0.30797 c -0.732545,0.16905 -0.423248,1.27453 0.284581,1.11093 0.752676,-0.17395 0.460832,-1.28295 -0.284581,-1.11093 m -8.744374,0.10291 c -0.68966,0.099 -0.536457,1.163 0.129355,1.06567 0.670506,-0.098 0.552157,-1.16351 -0.129355,-1.06567 m 13.09069,0.0282 c -0.769202,0.0345 -0.721382,1.24573 0.05174,1.198 0.779596,-0.0481 0.710424,-1.23215 -0.05174,-1.198 m -8.589148,0.2288 c -0.93141,0.13552 -0.70965,1.53782 0.206967,1.37707 0.854218,-0.14981 0.637134,-1.4999 -0.206967,-1.37707 m 46.98161,0.15716 c -1.14029,0.24329 -0.73711,2.01528 0.38806,1.77132 1.15719,-0.2509 0.74369,-2.01278 -0.38806,-1.77132 m -8.692635,0.0773 c -0.561499,0.0806 -0.461773,0.96711 0.103484,0.8999 0.586403,-0.0697 0.459739,-0.98076 -0.103484,-0.8999 m -3.932381,0.46907 c -0.61357,0.17734 -0.335432,1.12486 0.258709,0.94588 0.640047,-0.1928 0.34963,-1.12172 -0.258709,-0.94588 m -13.884064,0.13009 0.0086,0.0172 -0.0086,-0.0172 m 1.414276,-0.0173 -0.02587,0.0776 h 0.02587 v -0.0776 m 20.645004,0.0134 c -0.647995,0.14057 -0.404223,1.13348 0.23284,0.98177 0.65178,-0.15521 0.4017,-1.11943 -0.23284,-0.98177 m -19.26522,0.10731 0.0086,0.0173 -0.0086,-0.0173 m 11.170055,0.0496 c 0.187406,-0.0243 0.368395,0.32525 0.100925,0.364 -0.245969,0.0356 -0.336543,-0.33351 -0.100925,-0.364 m -15.309404,0.0539 0.0086,0.0172 -0.0086,-0.0172 m 15.410449,0.34494 -0.02587,0.0259 0.02587,-0.0259 m -27.449055,0.0941 c -0.751126,0.21711 -0.400532,1.35152 0.336322,1.14954 0.782254,-0.21442 0.413432,-1.36625 -0.336322,-1.14954 m -4.139349,0.25663 c -0.716788,0.18806 -0.397054,1.30453 0.310451,1.13599 0.74768,-0.17812 0.430073,-1.33026 -0.310451,-1.13599 m 22.84403,0.0373 0.02587,0.0259 -0.02587,-0.0259 m -14.177269,0.20697 0.02587,0.0259 -0.02587,-0.0259 m 19.687777,0.25871 0.02587,0.0259 -0.02587,-0.0259 m -4.31182,0.1466 0.0086,0.0172 -0.0086,-0.0172 m 12.512905,0.0218 c -0.552448,0.082 -0.43668,0.95677 0.103483,0.87923 0.562914,-0.0808 0.453942,-0.96194 -0.103483,-0.87923 m -3.984123,0.0555 c -0.559649,0.17574 -0.247208,1.10674 0.310451,0.94578 0.681006,-0.19656 0.338899,-1.14969 -0.310451,-0.94578 m -36.73672,0.2021 c -0.920793,0.16451 -0.664125,1.56012 0.25871,1.3752 0.857993,-0.17192 0.568738,-1.52305 -0.25871,-1.3752 m 36.76259,0.16907 0.103484,0.0776 v -0.12935 c 0.383175,0.0305 0.06139,0.48282 -0.07737,0.18022 -0.01909,-0.0416 -0.02151,-0.0839 -0.02611,-0.12848 m -41.23826,0.11716 c -0.716406,0.0628 -0.625976,1.16228 0.07761,1.09418 0.700658,-0.0678 0.618518,-1.15519 -0.07761,-1.09418 m 33.770187,0.18467 0.0086,0.0172 -0.0086,-0.0172 m -22.076528,0.1258 c -0.766369,0.17717 -0.444167,1.35905 0.310452,1.18463 0.786843,-0.18187 0.462297,-1.36328 -0.310452,-1.18463 m 42.247225,0.15363 c -1.12963,0.11266 -1.06043,1.87012 0.0776,1.78547 0.4816,-0.0358 0.85762,-0.40158 0.87288,-0.89208 0.0149,-0.48016 -0.46856,-0.94146 -0.9505,-0.89339 m -4.60502,0.10516 c -0.64875,0.15374 -0.40877,1.17207 0.23284,1.01188 0.64534,-0.16112 0.38982,-1.15943 -0.23284,-1.01188 m -11.219364,0.0293 0.0086,0.0172 -0.0086,-0.0172 m 0.02587,0.10348 0.0086,0.0172 -0.0086,-0.0172 m -30.381093,0.33457 c -0.795896,0.0346 -0.694681,1.2165 0.07761,1.17345 0.747663,-0.0417 0.67623,-1.20626 -0.07761,-1.17345 m 11.357338,0.29495 v 0.0776 h 0.02587 l -0.02587,-0.0776 m 23.10274,0.0407 c -0.585955,0.16809 -0.260731,1.07788 0.310451,0.9133 0.63908,-0.18414 0.312719,-1.09207 -0.310451,-0.9133 m -23.128611,0.0628 0.02587,0.0259 -0.02587,-0.0259 m 23.439062,0.31045 c -0.0012,0.35247 -0.369526,0.23329 -0.258709,-0.0776 l 0.258709,0.0776 m 3.62193,0.0131 c -0.564764,0.0838 -0.391772,0.94713 0.155226,0.86056 0.519439,-0.0822 0.363241,-0.93749 -0.155226,-0.86056 m -7.105884,0.26282 0.0086,0.0172 -0.0086,-0.0172 m -28.207934,0.17754 c -0.786221,0.18171 -0.461196,1.39249 0.310451,1.21442 0.789581,-0.18222 0.477141,-1.39645 -0.310451,-1.21442 m 7.450827,0.0898 v 0.0776 h 0.02587 l -0.02587,-0.0776 m -14.694687,0.21899 c -0.94605,0.16909 -0.66885,1.56505 0.258709,1.40238 0.893744,-0.15675 0.616483,-1.55881 -0.258709,-1.40238 m 10.917532,0.7641 0.05174,0.0517 -0.05174,-0.0517 m 28.561505,0.0164 c -0.592972,0.0503 -0.519862,0.99896 0.06272,0.9583 0.646583,-0.0451 0.580491,-1.01282 -0.06272,-0.9583 m -43.902966,0.10011 c -0.722482,0.0974 -0.596873,1.2007 0.103484,1.11714 0.704193,-0.084 0.588145,-1.21041 -0.103484,-1.11714 m 15.470815,0.0128 0.05174,0.0517 -0.05174,-0.0517 m 2.923415,0 v 0.10348 h 0.02587 l -0.02587,-0.10348 m -10.684693,0.0396 c -0.756875,0.17498 -0.432786,1.33965 0.310451,1.1626 0.771218,-0.18372 0.444998,-1.33724 -0.310451,-1.1626 m 43.256197,-0.002 c -0.64138,0.12227 -0.40757,1.09452 0.20696,0.96088 0.63756,-0.13865 0.40943,-1.07839 -0.20696,-0.96088 m -10.374246,0.0655 0.02587,0.0259 -0.02587,-0.0259 m -22.223129,0.0517 -0.02587,0.0517 0.02587,-0.0517 m 25.715704,0.15523 c -0.0018,0.0344 -3.35e-4,0.0706 -0.0102,0.10414 -0.115137,0.39123 -0.438555,-0.2847 -0.105163,-0.17311 0.03941,0.0132 0.07807,0.0498 0.115364,0.069 m -3.458083,-0.0604 0.0086,0.0172 -0.0086,-0.0172 m 3.302857,0.13797 v 0.0259 l 0.103484,0.0259 -0.103484,-0.0517 m 11.409077,0.14275 c -1.12441,0.24025 -0.69808,1.93135 0.41394,1.70796 1.11412,-0.22381 0.68028,-1.94175 -0.41394,-1.70796 m -44.161673,0.20934 c -0.785215,0.0451 -0.741398,1.30833 0.05174,1.26808 0.830813,-0.0421 0.769546,-1.31525 -0.05174,-1.26808 m 36.503881,0.0762 c -0.56568,0.0612 -0.460226,0.9116 0.103484,0.8345 0.518997,-0.071 0.414301,-0.89053 -0.103484,-0.8345 m -29.932665,0.24436 0.05174,0.0517 -0.05174,-0.0517 m 0.02587,0.33632 0.02587,0.0259 -0.02587,-0.0259 m 23.257965,0.12935 0.02587,0.0259 -0.02587,-0.0259 m 0.129355,0.23284 v 0.0776 h 0.02587 l -0.02587,-0.0776 m -0.02587,0.10349 0.02587,0.0259 -0.02587,-0.0259 m 3.285608,0.0188 c -0.608264,0.023 -0.55265,0.97997 0.05174,0.95401 0.626644,-0.0269 0.55781,-0.97706 -0.05174,-0.95401 m -40.591488,0.2016 c -0.885406,0.1921 -0.531483,1.5786 0.310451,1.39607 0.956263,-0.20732 0.64081,-1.60246 -0.310451,-1.39607 m 40.669101,0.19355 v 0.20697 c -0.127346,-0.0199 -0.171547,-0.0808 -0.181097,-0.20697 h 0.181097 m -27.190347,0.0517 0.05174,0.0517 -0.05174,-0.0517 m 0.06037,0.0949 0.0086,0.0172 -0.0086,-0.0172 m 0.01725,0.0604 -0.07761,0.23284 c 0.0717,-0.0663 0.111663,-0.13658 0.07761,-0.23284 m -10.141404,0.0941 c -0.766317,0.2215 -0.39035,1.37065 0.362193,1.15313 0.769359,-0.22238 0.379676,-1.36756 -0.362193,-1.15313 m 3.414963,0.20631 c -0.783201,0.20746 -0.405664,1.44889 0.362193,1.22753 0.800296,-0.23071 0.433319,-1.43826 -0.362193,-1.22753 m -19.403197,6.42601 c -0.258218,0.0598 -0.504374,0.19138 -0.750257,0.28975 -0.06972,0.0279 -0.210706,0.0563 -0.240684,0.135 -0.05964,0.15656 0.153426,0.52121 0.2215,0.66183 0.319972,0.66093 0.847712,1.20609 1.467956,1.59299 1.563704,0.97544 3.843035,1.17408 5.510508,0.34034 1.2293,-0.61465 2.143107,-2.25017 1.280112,-3.53733 -0.428028,-0.6384 -1.157764,-0.97635 -1.875144,-1.18253 -1.169539,-0.33615 -2.395298,-0.41857 -3.570188,-0.72892 -0.800594,-0.21149 -1.574186,-0.82052 -1.253602,-1.73635 0.26081,-0.74507 1.064307,-1.11828 1.796892,-1.22294 1.421816,-0.20313 3.061152,0.33982 3.596059,1.7921 0.236996,-0.0422 0.453329,-0.20368 0.672644,-0.29947 0.08416,-0.0368 0.208572,-0.0722 0.241981,-0.16892 0.05711,-0.16542 -0.179453,-0.48338 -0.263041,-0.61819 -0.376698,-0.60752 -0.978525,-1.07196 -1.634679,-1.34499 -1.351701,-0.56247 -3.065845,-0.56924 -4.346317,0.19252 -1.120502,0.6666 -1.711599,2.29772 -0.904444,3.42911 0.410499,0.5754 1.146706,0.86499 1.809927,1.03157 1.108723,0.27846 2.263801,0.36781 3.363221,0.68344 0.819664,0.23532 1.775108,0.74494 1.528979,1.7517 -0.245479,1.0041 -1.491403,1.42635 -2.408591,1.44915 -1.424438,0.0354 -2.962666,-0.28672 -3.823867,-1.55264 -0.202548,-0.29773 -0.310568,-0.61822 -0.418965,-0.95722 m 56.890173,-6.19563 c -0.525263,0.11227 -0.701383,0.80112 -0.377965,1.20214 0.187603,0.23262 0.537789,0.28382 0.817771,0.21954 0.434549,-0.0998 0.663079,-0.65875 0.452259,-1.04701 -0.17375,-0.31999 -0.543774,-0.4491 -0.892065,-0.37467 m 3.285605,-9.2e-4 c -0.63262,0.10386 -0.47678,1.08025 0.12936,0.96912 0.62422,-0.11443 0.47382,-1.06814 -0.12936,-0.96912 m -9.960305,0.24624 0.02587,0.0259 -0.02587,-0.0259 m -27.656023,0.0517 0.02587,0.0259 -0.02587,-0.0259 m 0,0.10348 0.02587,0.0259 -0.02587,-0.0259 m -14.694688,0.87961 h 0.750257 c 0.08465,0 0.224193,0.0256 0.297157,-0.0266 0.13683,-0.0978 0.02888,-0.38314 -0.0419,-0.48981 -0.211308,-0.31845 -0.828834,-0.35401 -0.978803,0.0507 -0.05222,0.14093 -0.02671,0.31787 -0.02671,0.46565 m 42.816388,-0.56916 v 2.06968 H 70.02305 c -0.152359,0 -0.422847,-0.0523 -0.560937,0.0156 -0.10488,0.0516 -0.109219,0.7138 -0.01848,0.78567 0.117505,0.0931 0.416973,0.0124 0.553547,0.003 0.454813,-0.0311 0.915386,0.0236 1.371159,0.0236 v 2.8458 c 0,1.05307 -0.07005,2.1655 0.957224,2.79885 0.183175,0.11293 0.387818,0.19326 0.595032,0.24998 0.314518,0.0861 0.632524,0.10795 0.957224,0.10742 0.418135,-6.7e-4 0.839675,-0.11403 1.215934,-0.29287 0.483349,-0.22973 0.904869,-0.62514 1.144548,-1.10416 0.05228,-0.10448 0.210517,-0.36411 0.145865,-0.48073 -0.09324,-0.16818 -0.642491,-0.32972 -0.824737,-0.37301 -0.139258,0.42799 -0.368869,0.81559 -0.750257,1.07313 -0.708703,0.47856 -1.849247,0.39734 -2.266978,-0.42636 -0.22344,-0.44058 -0.145157,-0.94882 -0.165906,-1.4229 -0.04362,-0.99681 -0.04176,-2.00431 10e-4,-3.00102 h 1.966191 1.707481 c 0,-0.15093 0.08113,-0.67439 -0.04148,-0.7715 -0.06547,-0.0519 -0.191323,-0.0305 -0.268967,-0.0305 h -0.698515 -2.664706 v -1.68161 l -0.04148,-0.56611 -0.268967,0.0325 -0.698515,0.14556 m -24.836092,0.0776 0.02587,0.0259 -0.02587,-0.0259 m 0.0086,0.12073 0.0086,0.0172 -0.0086,-0.0172 m 27.15585,0.2932 h -0.02587 c 0.02116,0.0983 0.118794,0.0762 0.206967,0.0711 0.202394,-0.0116 0.517886,0.0436 0.698515,-0.0194 -0.07113,-0.19306 -0.289298,-0.40743 -0.517419,-0.35357 -0.146155,0.0345 -0.376979,0.27062 -0.362193,0.30183 m 0.750257,-0.12935 -0.02587,0.0259 0.02587,-0.0259 m 10.244888,0.23283 1.08658,-0.0259 c -0.26256,-0.28414 -0.83945,-0.27236 -1.08658,0.0259 m -47.266187,6.59709 c -0.173478,-0.10879 -0.52428,-0.4804 -0.724386,-0.47548 -0.163741,0.004 -0.41322,0.34777 -0.54329,0.44921 -0.349644,0.27269 -0.791531,0.46327 -1.215933,0.58437 -1.417836,0.40459 -3.230194,0.27408 -4.230815,-0.94616 -0.260785,-0.31803 -0.337504,-0.66325 -0.477694,-1.03484 l 6.829925,-0.0259 c 0,-1.15625 -0.219603,-2.21135 -1.164192,-2.98903 -2.034875,-1.67532 -6.169541,-1.01325 -6.714543,1.87658 -0.07169,0.3801 -0.08205,0.78216 -0.0225,1.16419 0.429355,2.75458 3.767928,3.60846 6.090269,2.83718 0.76779,-0.25499 1.779389,-0.67704 2.173158,-1.44015 m 1.888578,-3.98412 c 0,-0.27612 -0.0048,-0.55402 -0.04076,-0.82787 -0.01015,-0.0773 0.0154,-0.23012 -0.05246,-0.28386 -0.150424,-0.11914 -0.67302,-0.0266 -0.864002,-0.0266 v 2.17315 4.42393 h 0.983096 v -2.58709 c 0,-0.75642 -0.0033,-1.53048 0.403974,-2.19903 0.784386,-1.28773 3.298755,-1.63494 4.11206,-0.18109 0.291487,0.52105 0.244217,1.20769 0.244217,1.78509 v 3.18212 h 0.983095 v -2.63883 c 0,-0.71114 -0.0027,-1.46371 0.373913,-2.09555 0.767481,-1.28746 3.271684,-1.73424 4.11012,-0.25871 0.309507,0.54469 0.250347,1.20818 0.250347,1.81097 v 3.18212 h 1.008966 v -3.36322 c 0,-0.70274 0.06493,-1.41975 -0.257932,-2.06967 -1.055516,-2.12473 -4.5626,-1.64035 -5.666511,0.15522 -0.689044,-1.65507 -2.980317,-1.87957 -4.423928,-1.15776 -0.289198,0.1446 -0.549699,0.33136 -0.775749,0.56273 -0.126843,0.12983 -0.226433,0.33117 -0.388443,0.41394 m 13.220044,1.06071 c 0.190685,-0.40782 0.553996,-0.69822 0.931354,-0.92609 0.913059,-0.55136 2.151655,-0.70484 3.182124,-0.46787 0.48021,0.11043 0.91868,0.27957 1.266637,0.64372 0.155023,0.16223 0.305619,0.43837 0.245297,0.67262 -0.06391,0.24818 -0.30021,0.34727 -0.528838,0.38104 -0.429539,0.0634 -0.863973,0.0649 -1.293547,0.12149 -1.04764,0.13805 -2.088891,0.1417 -3.104511,0.48057 -0.560546,0.18703 -1.121157,0.48776 -1.436753,1.00896 -0.719355,1.18802 0.427638,2.32674 1.540236,2.57609 1.759931,0.39444 3.574575,0.0101 4.811993,-1.33428 0,0.43394 0.09554,0.88193 0.440823,1.17804 0.586362,0.50287 1.930403,0.36717 2.328983,-0.35017 0.09535,-0.17161 -0.200777,-0.39671 -0.30109,-0.51732 -0.04075,-0.049 -0.09774,-0.14518 -0.170615,-0.14638 -0.110779,-0.002 -0.24369,0.17527 -0.33191,0.23427 -0.3145,0.21033 -0.761058,0.18989 -0.902669,-0.21734 -0.104172,-0.29957 -0.05456,-0.69549 -0.05456,-1.00897 v -1.83684 c 0,-0.46318 0.02585,-0.91173 -0.166585,-1.34529 -0.3077,-0.69324 -1.007757,-1.0922 -1.696122,-1.31939 -1.491387,-0.49225 -3.292606,-0.24211 -4.605025,0.613 -0.283592,0.18477 -0.541442,0.43155 -0.739178,0.70639 -0.05752,0.0799 -0.173483,0.20392 -0.173113,0.30804 3e-4,0.0849 0.101541,0.13417 0.162053,0.17489 0.182511,0.12282 0.381138,0.31534 0.595012,0.37082 m 10.063792,-0.90549 c -0.07162,-0.30081 -0.05284,-0.62493 -0.08201,-0.93135 -0.0078,-0.0816 0.0056,-0.27741 -0.06296,-0.33169 -0.158349,-0.12542 -0.690039,-0.0305 -0.889872,-0.0305 v 6.62295 l 1.008966,-0.0517 c -0.100664,-0.42279 -0.02587,-0.93698 -0.02587,-1.37116 0,-1.07701 -0.179284,-2.39492 0.448989,-3.33735 0.846661,-1.27 3.354079,-1.71651 4.402726,-0.4398 0.508803,0.61946 0.503567,1.38648 0.503567,2.14728 v 3.0269 h 1.008967 v -3.10451 c 0,-0.76851 0.03677,-1.54236 -0.317437,-2.25077 -0.838538,-1.67707 -3.429875,-1.8178 -4.908491,-0.97203 -0.453724,0.25953 -0.784538,0.60206 -1.086579,1.02377 m 25.120673,2.87168 c -0.21784,-0.0451 -0.43296,-0.11222 -0.64677,-0.17357 -0.0839,-0.0241 -0.21337,-0.0825 -0.29964,-0.0433 -0.0898,0.0409 -0.12146,0.21225 -0.16037,0.29446 -0.10127,0.21394 -0.2312,0.4231 -0.39477,0.59503 -0.61914,0.65075 -1.41169,0.9975 -2.30148,1.08219 -0.57756,0.055 -1.2185,-0.0169 -1.75922,-0.22853 -0.42673,-0.16703 -0.83046,-0.42592 -1.13055,-0.77605 -0.258,-0.30102 -0.44455,-0.67233 -0.52511,-1.0607 -0.24099,-1.16177 0.32571,-2.3183 1.39695,-2.8391 0.51886,-0.25225 1.08713,-0.31719 1.65574,-0.31716 0.97055,6e-5 2.19127,0.51162 2.48361,1.52639 0.24343,-0.0212 0.49029,-0.12358 0.72438,-0.19208 0.0694,-0.0203 0.21537,-0.0423 0.23757,-0.12556 0.0231,-0.0867 -0.0715,-0.20573 -0.11029,-0.27739 -0.12566,-0.2322 -0.26474,-0.44969 -0.44214,-0.64678 -0.50361,-0.55953 -1.20995,-0.90336 -1.93591,-1.06973 -0.81119,-0.18589 -1.65542,-0.158 -2.45773,0.0512 -0.64933,0.16927 -1.25297,0.50627 -1.71487,0.995 -0.39409,0.41698 -0.68049,0.91252 -0.81713,1.47233 -0.0937,0.38388 -0.11069,0.77304 -0.0833,1.1642 0.0244,0.34784 0.0917,0.68334 0.22092,1.00896 0.82509,2.07974 3.42388,2.56961 5.36951,2.01041 1.09431,-0.31452 2.50584,-1.21772 2.69058,-2.45021 m -10.425985,-4.16522 v 4.86373 1.26768 l 0.02659,0.44971 0.232118,0.0385 0.750256,-0.0225 -0.0259,-4.83786 0.001,-1.26768 -0.0276,-0.45006 -0.25799,-0.0415 h -0.698515 m -41.315874,2.79406 h -5.743346 c 0.0244,-0.55975 0.426199,-1.10544 0.85374,-1.43185 0.974365,-0.74389 2.442046,-0.79996 3.544318,-0.32736 0.694635,0.29783 1.338678,0.96061 1.345288,1.75921 m 22.089939,0.51015 c 0.150596,0.0277 0.07785,0.41758 0.06258,0.52468 -0.07669,0.53799 -0.330827,0.98271 -0.757265,1.32439 -1.006692,0.80661 -2.608252,0.97199 -3.828897,0.63787 -0.668649,-0.18302 -1.304976,-0.91942 -0.668154,-1.54084 0.125051,-0.12202 0.276875,-0.21257 0.435315,-0.284 1.047915,-0.47238 2.437802,-0.50238 3.570189,-0.55237 0.3695,-0.0163 0.821983,-0.17682 1.186228,-0.10973 m -25.090967,4.67501 c -0.845964,0.11142 -1.685799,0.32416 -2.328384,0.92269 -0.968542,0.90213 -1.151677,2.63647 -0.02587,3.49288 0.599519,0.45605 1.370203,0.62665 2.095545,0.76345 1.07029,0.20186 2.222643,0.31395 3.233866,0.73474 0.70882,0.29495 1.228907,0.95745 0.89676,1.73306 -0.280091,0.65405 -0.938668,0.996 -1.595275,1.16092 -1.310679,0.32919 -2.930229,0.0788 -3.984123,-0.80248 -0.329405,-0.27544 -0.59269,-0.59345 -0.782436,-0.97934 -0.06221,-0.12653 -0.126085,-0.52357 -0.241103,-0.5916 -0.06853,-0.0405 -0.181275,0.0324 -0.244137,0.0592 -0.217062,0.0925 -0.463557,0.15935 -0.668791,0.27509 -0.166805,0.0941 0.0341,0.44001 0.08873,0.56775 0.242632,0.56734 0.64216,1.06804 1.123349,1.45374 1.337867,1.07237 3.270245,1.35639 4.915476,0.99302 0.783149,-0.17298 1.57946,-0.56306 2.082171,-1.20496 0.747873,-0.95494 0.724418,-2.44432 -0.271206,-3.21628 -1.400572,-1.08594 -3.417951,-0.92266 -5.044831,-1.40739 -0.689955,-0.20557 -1.349724,-0.67908 -1.234039,-1.48187 0.08844,-0.61371 0.59053,-1.03194 1.130555,-1.26033 1.065004,-0.4504 2.420393,-0.28479 3.363221,0.36383 0.274042,0.18853 0.520662,0.43204 0.696819,0.71541 0.07487,0.12043 0.148615,0.41943 0.273302,0.48811 0.06793,0.0374 0.160346,-0.0252 0.219942,-0.0547 0.199919,-0.0988 0.42907,-0.18135 0.61707,-0.2995 0.150572,-0.0946 0.01626,-0.30109 -0.0416,-0.41848 -0.176252,-0.35757 -0.422887,-0.65269 -0.704824,-0.93126 -0.870538,-0.86012 -2.372686,-1.23343 -3.570188,-1.0757 m 25.275898,0.20941 c -0.510853,0.11083 -0.686603,0.8116 -0.374289,1.20148 0.193053,0.241 0.553532,0.28441 0.839966,0.21619 0.452738,-0.10784 0.651169,-0.71517 0.410479,-1.09477 -0.186199,-0.29366 -0.546356,-0.39446 -0.876156,-0.3229 m -18.756424,4.97967 c 0.179109,-0.38309 0.507926,-0.65198 0.853741,-0.87953 0.910096,-0.59887 2.212785,-0.75518 3.259737,-0.51442 0.538448,0.12382 1.677476,0.5382 1.51259,1.29047 -0.05785,0.26393 -0.286244,0.37098 -0.529495,0.40691 -0.420993,0.0622 -0.846016,0.0675 -1.267675,0.11789 -1.055185,0.12621 -2.11031,0.1438 -3.130383,0.48416 -0.561273,0.18728 -1.123986,0.48379 -1.437054,1.00897 -0.712156,1.19464 0.418873,2.32477 1.540538,2.57609 1.761301,0.39464 3.573867,0.0109 4.811993,-1.33429 0,0.9197 0.618695,1.60104 1.578127,1.46357 0.35293,-0.0506 0.704828,-0.18846 0.983095,-0.41496 0.0823,-0.067 0.231401,-0.18141 0.23719,-0.29835 0.0085,-0.17224 -0.364906,-0.48142 -0.470029,-0.6209 -0.366829,0.17082 -0.750942,0.68699 -1.158662,0.23172 -0.0589,-0.0658 -0.101279,-0.14558 -0.121191,-0.23172 -0.03199,-0.13842 -0.02165,-0.29771 -0.03517,-0.43981 -0.07331,-0.7703 -0.0044,-1.5802 -0.0044,-2.35425 0,-0.46318 0.02585,-0.91174 -0.166585,-1.34529 -0.29816,-0.67175 -0.97503,-1.07922 -1.64438,-1.30217 -1.381635,-0.46021 -3.075211,-0.31938 -4.346316,0.40775 -0.386768,0.22124 -0.739578,0.48494 -1.011581,0.84268 -0.06548,0.0861 -0.23543,0.26558 -0.208804,0.38329 0.03007,0.13295 0.313998,0.25234 0.418386,0.3262 0.107668,0.0762 0.207356,0.16254 0.336322,0.19599 m 10.01205,-0.90548 c -0.0065,-0.31717 -0.04317,-0.64143 -0.07322,-0.95723 -0.0079,-0.0832 0.02843,-0.24696 -0.04587,-0.30582 -0.154755,-0.12256 -0.669003,-0.0305 -0.864002,-0.0305 v 7.24386 1.57813 l 0.02659,0.55253 0.232122,0.0355 0.750257,-0.0447 c -0.112241,-0.47143 -0.0352,-1.07208 -0.0023,-1.55226 0.03101,-0.45277 0.0023,-0.91726 0.0023,-1.37116 0,-0.36593 0.03327,-0.75041 -0.02587,-1.11245 0.178706,0.14455 0.29298,0.35662 0.465778,0.51002 0.515037,0.4572 1.137436,0.75236 1.810864,0.88701 0.68496,0.13696 1.383501,0.13745 2.069674,0.005 0.799681,-0.15425 1.61602,-0.53167 2.168765,-1.14341 1.063181,-1.17665 1.150101,-3.08617 0.172194,-4.34631 -1.067211,-1.37522 -3.138439,-1.73419 -4.746956,-1.27518 -0.83981,0.23964 -1.352712,0.71288 -1.940319,1.32692 m 11.69366,2.40599 c 1.042012,0 2.086481,-0.0259 3.130382,-0.0259 h 1.992062 c 0.414415,0 0.829272,0.0252 1.241804,0.0259 0.106598,1.7e-4 0.336436,0.0429 0.424193,-0.0266 0.06087,-0.0482 0.04145,-0.16441 0.04148,-0.23212 9.5e-5,-0.21826 -0.0027,-0.42992 -0.02717,-0.64677 -0.114941,-1.02018 -0.722725,-1.87118 -1.576826,-2.41388 -2.138239,-1.35863 -5.764549,-0.437 -6.286616,2.23278 -0.06481,0.33143 -0.06995,0.6743 -0.0299,1.00897 0.05057,0.42258 0.171028,0.81529 0.374193,1.19006 1.083677,1.99899 3.82814,2.38392 5.812973,1.72473 0.595473,-0.19776 1.14914,-0.48044 1.629868,-0.88626 0.111297,-0.094 0.42322,-0.33531 0.410903,-0.49973 -0.0056,-0.0751 -0.09832,-0.12053 -0.152212,-0.15828 -0.131111,-0.0918 -0.426119,-0.41506 -0.595013,-0.31893 -0.138014,0.0786 -0.239685,0.23258 -0.362193,0.33344 -0.260452,0.21443 -0.566826,0.39097 -0.879611,0.5177 -1.526843,0.6186 -3.774949,0.54955 -4.792688,-0.9455 -0.18625,-0.27361 -0.267287,-0.56599 -0.355627,-0.87962 m 9.158309,-2.40599 -0.07993,-0.93136 -0.06504,-0.3356 -0.243095,-0.0266 h -0.646774 v 4.88961 1.2418 l 0.02659,0.44905 0.232119,0.0355 0.724386,-0.0188 c 0,-0.93125 -0.0158,-1.86497 0.02485,-2.79406 0.02772,-0.63347 0.0095,-1.20905 0.328698,-1.7851 0.815996,-1.47276 3.585846,-1.92748 4.613009,-0.4398 0.379784,0.55005 0.388721,1.21858 0.388721,1.8627 v 2.14729 c 0,0.32128 -0.06526,0.72652 0.02587,1.03484 l 0.983095,-0.0259 v -3.13038 c 0,-0.73895 0.04197,-1.48934 -0.291288,-2.17316 -0.834482,-1.7123 -3.422895,-1.8885 -4.934639,-1.02378 -0.453721,0.25953 -0.784548,0.60207 -1.086579,1.02378 m 15.522554,2.89754 c -0.21368,-0.0947 -0.4476,-0.14219 -0.67264,-0.20305 -0.0786,-0.0213 -0.19703,-0.0713 -0.27748,-0.039 -0.13215,0.0531 -0.21886,0.40595 -0.29336,0.52666 -0.20866,0.33806 -0.49204,0.63978 -0.82619,0.85723 -0.91339,0.59441 -2.10733,0.74558 -3.15625,0.46905 -0.62404,-0.16451 -1.21459,-0.51445 -1.59989,-1.0417 -0.66913,-0.91565 -0.58973,-2.25384 0.14905,-3.10349 0.53371,-0.61381 1.33071,-0.90166 2.12348,-0.95593 0.79098,-0.0541 1.63747,0.12657 2.25077,0.65223 0.18993,0.16279 0.3483,0.34675 0.47592,0.56139 0.0431,0.0725 0.0943,0.26204 0.17868,0.29035 0.0803,0.0269 0.19985,-0.0321 0.27675,-0.0539 0.22468,-0.0637 0.45878,-0.1158 0.67265,-0.2106 -0.37511,-1.1014 -1.44574,-1.78509 -2.53535,-2.02889 -2.21265,-0.49509 -4.895521,0.59038 -5.068393,3.11547 -0.027,0.39442 0.0033,0.8078 0.105182,1.19006 0.980081,3.67649 7.051571,3.33895 8.197071,-0.0259 m 1.75923,-0.49155 4.4498,-0.0259 h 2.35425 c 0,-1.24109 -0.27426,-2.31715 -1.31942,-3.10714 -2.02836,-1.53316 -5.81091,-0.82871 -6.51546,1.8136 -0.0981,0.36792 -0.11027,0.73664 -0.0839,1.11245 0.0231,0.32911 0.0846,0.6481 0.20439,0.95722 0.81131,2.0943 3.40062,2.6619 5.38605,2.25069 0.7657,-0.15859 1.54272,-0.47281 2.14728,-0.97667 0.12357,-0.10298 0.51951,-0.38886 0.49369,-0.57317 -0.0105,-0.0746 -0.10249,-0.12539 -0.15738,-0.16506 -0.13015,-0.0941 -0.42533,-0.41731 -0.594,-0.31273 -0.1339,0.083 -0.23671,0.24104 -0.36321,0.34065 -0.29002,0.22839 -0.61431,0.40763 -0.95722,0.54347 -1.24565,0.49345 -2.81403,0.48597 -3.95825,-0.26234 -0.53803,-0.35187 -1.03204,-0.92772 -1.08658,-1.5951 m -29.622218,2.92342 0.957225,-0.0259 v -4.94135 -1.21593 c 0,-0.098 0.0444,-0.3452 -0.04148,-0.41322 -0.134828,-0.10679 -0.590835,-0.0277 -0.760518,-0.0266 -0.07641,5.2e-4 -0.172172,-0.008 -0.198744,0.0814 -0.05089,0.17141 -0.0082,0.41274 -0.0082,0.59119 v 1.31942 3.07864 c 0,0.4667 -0.07986,1.10705 0.05174,1.55226 m -5.562249,-5.91706 c 1.004529,-0.11855 2.215207,0.29331 2.859656,1.07919 0.939315,1.14547 0.559396,2.88943 -0.686498,3.63217 -0.436894,0.26046 -0.945088,0.41204 -1.448772,0.47391 -1.010495,0.12413 -2.166128,-0.11516 -2.923396,-0.82278 -1.089955,-1.01849 -0.943557,-2.87295 0.25869,-3.73789 0.584427,-0.42046 1.243428,-0.54235 1.94032,-0.6246 m 14.48772,2.08816 h -5.743346 c 0.01745,-0.81906 0.767784,-1.50664 1.474643,-1.79026 1.50335,-0.60321 4.110698,-0.19495 4.268703,1.79026 m 26.414217,0 h -5.74334 c 0.0234,-0.53777 0.39987,-1.06371 0.80199,-1.39028 0.97639,-0.79294 2.47054,-0.83699 3.59606,-0.36865 0.69422,0.28888 1.33875,0.96839 1.34529,1.75893 m -48.309247,0.51814 c 0.127864,0.0451 0.05019,0.41577 0.03811,0.5167 -0.06736,0.56263 -0.357188,1.02175 -0.806013,1.36505 -0.759482,0.58091 -1.708318,0.73049 -2.638835,0.73049 -0.475621,0 -0.982242,-0.0387 -1.422901,-0.23385 -0.848965,-0.37602 -0.795643,-1.34576 0.02587,-1.71004 1.076145,-0.47719 2.460331,-0.51532 3.62193,-0.5666 0.330761,-0.0146 0.867573,-0.21249 1.181839,-0.10175 m -18.282523,8.39282 c -0.196873,0.0307 -0.40178,0.0871 -0.56916,0.19832 -0.556817,0.37003 -0.604308,1.18931 -0.12702,1.64854 0.27249,0.26217 0.743529,0.35639 1.110115,0.30386 0.199386,-0.0286 0.397165,-0.0798 0.56916,-0.1884 0.576769,-0.36422 0.649076,-1.19494 0.154847,-1.66082 -0.280592,-0.26448 -0.763382,-0.36001 -1.137942,-0.3015 m 10.814048,0 c -0.135686,0.0212 -0.269118,0.0565 -0.388063,0.12712 -0.296109,0.17576 -0.450004,0.62947 -0.126641,0.86777 0.244942,0.18051 0.611635,0.1946 0.902768,0.23903 0.108112,0.0165 0.381721,0.0748 0.360636,0.22974 -0.04881,0.35872 -0.730669,0.24234 -0.929796,0.12676 -0.08899,-0.0517 -0.148093,-0.13809 -0.232838,-0.19409 -0.07294,-0.0482 -0.137463,-0.0324 -0.206448,0.0152 -0.211015,0.14555 -0.02609,0.33403 0.128835,0.43715 0.288272,0.19189 0.696822,0.25459 1.034837,0.19376 0.139852,-0.0252 0.29305,-0.0659 0.413935,-0.14276 0.322891,-0.20523 0.438591,-0.66718 0.07751,-0.90282 -0.236991,-0.15467 -0.556831,-0.16259 -0.82777,-0.20827 -0.115706,-0.0195 -0.411309,-0.0559 -0.390099,-0.23074 0.0391,-0.32233 0.602081,-0.22584 0.778163,-0.12349 0.06358,0.037 0.115001,0.0957 0.181096,0.12774 0.06556,0.0318 0.121395,0.0132 0.180598,-0.0231 0.210912,-0.12938 0.05188,-0.28728 -0.102985,-0.38294 -0.247956,-0.15315 -0.567742,-0.20066 -0.853741,-0.15598 m 14.047915,0.3767 0.698515,0.0259 0.02587,1.65573 0.517419,-0.0259 c -0.08608,-0.36156 -0.02587,-0.79319 -0.02587,-1.16419 0,-0.11085 -0.03756,-0.30958 0.02659,-0.40571 0.127148,-0.19054 0.534438,0.0663 0.667295,-0.10145 0.06265,-0.0791 0.0305,-0.25151 0.0305,-0.34658 l -1.422901,-0.0259 -0.4959,0.0266 -0.02152,0.36147 m 10.58121,1.65574 c 0.127109,0.0376 0.446709,0.081 0.541072,-0.0371 0.07899,-0.0988 0.05618,-0.27056 0.186769,-0.32786 0.233991,-0.10268 0.6481,-0.0231 0.902027,-0.0231 0.07381,0.43422 0.254446,0.41393 0.646774,0.41393 -0.07325,-0.48865 -0.395524,-1.01472 -0.5795,-1.47464 -0.06193,-0.15482 -0.116138,-0.43586 -0.240585,-0.54996 -0.08831,-0.081 -0.517918,-0.0869 -0.615493,-0.0185 -0.128533,0.0901 -0.188669,0.42501 -0.246033,0.56844 -0.193826,0.48464 -0.396941,0.96592 -0.595031,1.44877 m 8.045859,0.0259 c 0.0055,-0.66961 0.123114,-1.40654 0,-2.06967 l -0.439086,0.0415 -0.02557,0.4242 0.02485,1.11245 0.02659,0.45006 0.413215,0.0415 m 5.096592,-2.05484 c -0.331964,0.0936 -0.173309,0.55787 0.154809,0.45582 0.285805,-0.0889 0.132203,-0.53672 -0.154809,-0.45582 m 6.312486,-0.0148 v 0.38806 l 0.72439,0.0259 v 1.21593 l 0.0415,0.41321 0.45007,0.0266 0.0259,-1.65573 c 0.1367,0 0.58246,0.0715 0.67192,-0.0415 0.0604,-0.0762 0.0266,-0.25435 0.0266,-0.34658 l -1.94032,-0.0259 m 7.21799,0 v 2.06967 l 0.43909,-0.0415 0.0266,-0.42419 v -1.11245 l -0.0266,-0.45007 -0.43909,-0.0415 m 1.03484,0 v 1.47464 c 0,0.13149 -0.0579,0.44701 0.0266,0.55347 0.0759,0.0957 0.33702,0.0237 0.4391,0.0157 l 1.1e-4,-0.23283 c 6.3e-4,-0.0517 2.7e-4,-0.10507 0.0147,-0.15523 0.13401,-0.46545 0.49634,0.2761 0.63437,0.36886 0.13157,0.0884 0.36329,0.0451 0.51501,0.0451 l -0.64678,-0.93135 c 0.20057,-0.0919 0.50032,-0.31601 0.59503,-0.51742 l -0.51741,0.0182 -0.59504,0.47336 v -0.802 l -0.0415,-0.28386 -0.42419,-0.0266 m 2.30263,0.0169 c -0.31188,0.0978 -0.15554,0.54794 0.15509,0.45374 0.31838,-0.0966 0.14869,-0.54902 -0.15509,-0.45374 m -33.684069,0.60399 v 0.28458 l 0.336322,0.0259 c 0.0024,0.2943 -0.05188,0.81362 0.209383,1.00925 0.327635,0.24532 1.170325,0.14082 0.954809,-0.38834 -0.144103,0.0338 -0.26267,0.16207 -0.413935,0.1677 -0.361258,0.0135 -0.258829,-0.56774 -0.258709,-0.78861 0.181797,0 0.475808,0.0564 0.642939,-0.0192 0.09126,-0.0413 0.121674,-0.22634 0.02148,-0.27563 -0.180253,-0.0887 -0.459878,0.0718 -0.630326,-0.0422 -0.13147,-0.0879 0.05837,-0.39644 -0.115541,-0.42347 -0.09308,-0.0145 -0.374254,0.009 -0.40086,0.11757 -0.02283,0.0932 0.05402,0.21152 -0.02487,0.29101 -0.07036,0.0709 -0.229785,0.0415 -0.320693,0.0415 m 14.875784,0 h -0.362193 c 3.2e-5,0.28309 0.09251,0.31043 0.362193,0.31045 0,0.31114 -0.08918,0.77554 0.182215,0.99879 0.334983,0.27555 1.071382,0.15333 1.007848,-0.35201 -0.173959,0.004 -0.300718,0.14245 -0.465677,0.14483 -0.35594,0.005 -0.258709,-0.56995 -0.258709,-0.79161 0.192554,0 0.459304,0.0483 0.642939,-0.0112 0.09464,-0.0307 0.117512,-0.21123 0.03996,-0.27265 -0.125288,-0.0992 -0.525744,-0.0266 -0.682902,-0.0266 v -0.46567 c -0.112472,0.009 -0.398062,0.01 -0.46394,0.1147 -0.04947,0.0789 -0.0018,0.25816 -0.0017,0.35097 m 19.972355,0 h -0.36219 c 3e-5,0.28309 0.0925,0.31043 0.36219,0.31045 0,0.32122 -0.0929,0.80188 0.20737,1.01805 0.32189,0.23173 1.07509,0.13408 0.9827,-0.37127 -0.16905,0.009 -0.30132,0.14375 -0.46568,0.1449 -0.35614,0.002 -0.25871,-0.56816 -0.25871,-0.79168 l 0.72439,-0.0259 c -5e-5,-0.40897 -0.40423,-0.28458 -0.72439,-0.28458 v -0.46567 c -0.11247,0.009 -0.39806,0.01 -0.46394,0.1147 -0.0495,0.0789 -0.002,0.25816 -0.002,0.35097 m -30.010275,-0.23284 0.336322,0.95723 h -0.698515 c 0.02344,-0.26849 0.180834,-0.75635 0.362193,-0.95723 m -36.581494,0.0344 c 0.271336,-0.0476 0.606217,-6e-5 0.788225,0.22545 0.324729,0.40235 0.05937,1.0118 -0.426032,1.09932 -0.264342,0.0477 -0.583736,-0.003 -0.761715,-0.22324 -0.31646,-0.39126 -0.096,-1.01465 0.399522,-1.10153 m 1.966191,0.19846 0.02587,2.06968 0.465676,-0.0259 -0.02587,-0.87962 c 0.158414,0.10433 0.301187,0.22597 0.491548,0.26725 0.972023,0.21084 1.312414,-1.25483 0.310451,-1.41615 -0.120708,-0.0194 -0.242897,-0.0219 -0.362193,0.008 -0.17959,0.0452 -0.328332,0.16826 -0.465677,0.28709 -0.03772,-0.3224 -0.134766,-0.31045 -0.439805,-0.31045 m 2.897544,0.87961 c 0.277135,-0.066 0.595656,-0.0259 0.879611,-0.0259 0.09926,0 0.260382,0.0304 0.350974,-0.0156 0.227546,-0.11555 -0.114676,-0.57644 -0.222638,-0.65891 -0.539469,-0.41209 -1.797341,-0.057 -1.457755,0.77801 0.180596,0.44405 0.809545,0.55045 1.225936,0.46557 0.127061,-0.0259 0.466046,-0.0922 0.474419,-0.25933 0.006,-0.12032 -0.119542,-0.15967 -0.21571,-0.13836 -0.339439,0.0752 -0.81849,0.26174 -1.034837,-0.1455 m 1.888578,0.56916 c 0.103059,0 0.368547,0.0476 0.439087,-0.0415 0.05345,-0.0675 0.02696,-0.21433 0.02657,-0.29484 -0.0016,-0.32869 -0.06761,-0.70816 0.362213,-0.78729 0.580583,-0.10688 0.360006,0.71885 0.419844,1.01862 0.02665,0.13349 0.324468,0.15271 0.418287,0.0784 0.07643,-0.0605 0.04148,-0.24982 0.04148,-0.3356 0,-0.30978 0.07608,-0.75224 -0.208086,-0.96658 -0.378332,-0.28538 -0.769431,-0.0295 -1.085461,0.19045 -7.04e-4,-0.0851 0.01157,-0.22616 -0.06634,-0.28386 -0.07933,-0.0588 -0.332698,-0.0548 -0.365247,0.0549 -0.04458,0.15017 0.0049,0.33594 0.01533,0.48771 0.01991,0.29068 0.0023,0.58824 0.0023,0.87961 m 6.519474,-1.43741 c -0.551382,0.0868 -1.00702,0.69315 -0.538499,1.17599 0.227255,0.2342 0.642426,0.29887 0.952434,0.25007 0.545159,-0.0858 1.016037,-0.66025 0.564369,-1.1518 -0.233148,-0.25373 -0.648273,-0.32621 -0.978304,-0.27426 m 2.949286,1.12696 c 0.04081,0.32266 0.136539,0.31045 0.439805,0.31045 0,-0.40496 0.106686,-0.98026 -0.0082,-1.36732 -0.03396,-0.11438 -0.389062,-0.12622 -0.456718,-0.04 -0.05713,0.0728 -0.0054,0.21161 -0.0018,0.29483 0.01451,0.33131 0.0184,0.79468 -0.438789,0.79244 -0.530569,-0.003 -0.257007,-0.75245 -0.344546,-1.04731 -0.03389,-0.11415 -0.360434,-0.11938 -0.441843,-0.0549 -0.08474,0.0672 -0.02054,0.24627 -0.01663,0.33561 0.01319,0.30124 -0.07799,0.72143 0.18483,0.94344 0.373855,0.31582 0.76557,0.056 1.083863,-0.16732 m 1.034837,0.31045 c 0.104074,0 0.340112,0.0441 0.423178,-0.0266 0.05359,-0.0456 0.02826,-0.19249 0.03521,-0.25799 0.02564,-0.24149 -0.06224,-0.55162 0.11658,-0.74874 0.334588,-0.36883 0.406738,0.40741 0.787863,0.10004 0.186027,-0.15004 -0.165372,-0.45171 -0.302126,-0.4912 -0.299458,-0.0865 -0.411923,0.12067 -0.646773,0.23442 -0.0087,-0.068 -0.0079,-0.18207 -0.06725,-0.2282 -0.07887,-0.0613 -0.331262,-0.0605 -0.364331,0.0509 -0.117568,0.39602 0.01765,0.95593 0.01765,1.36732 m 3.62193,-0.93135 c -0.103124,-0.70616 -1.326343,-0.63596 -1.620467,-0.12935 -0.221365,0.38128 -0.0062,0.81467 0.378662,0.97136 0.433086,0.17633 1.012718,0.10506 1.295025,-0.29872 0.147797,-0.21139 -0.03127,-0.23152 -0.208427,-0.24723 -0.151966,-0.0135 -0.183114,0.0999 -0.285998,0.18531 -0.150953,0.12524 -0.365143,0.16328 -0.54189,0.0793 -0.461167,-0.2191 -0.21473,-0.86758 0.258709,-0.74919 0.154382,0.0386 0.226768,0.20758 0.366586,0.24575 0.102328,0.0279 0.249254,-0.0523 0.3578,-0.0572 m 1.11245,0.36219 c 0.277136,-0.066 0.595656,-0.0259 0.879611,-0.0259 0.100999,0 0.261328,0.03 0.35397,-0.0156 0.225931,-0.11118 -0.120013,-0.57822 -0.225632,-0.65891 -0.529245,-0.40429 -1.765615,-0.0744 -1.467218,0.75214 0.165217,0.45761 0.811081,0.583 1.235397,0.49116 0.127602,-0.0276 0.464798,-0.0932 0.477415,-0.25894 0.01106,-0.14529 -0.177417,-0.13629 -0.270448,-0.11299 -0.323405,0.081 -0.786606,0.19886 -0.983095,-0.17098 m 5.743346,0 c 0.277137,-0.066 0.595654,-0.0259 0.879612,-0.0259 0.09927,0 0.260357,0.0304 0.350972,-0.0156 0.231117,-0.1173 -0.110662,-0.58067 -0.221997,-0.6625 -0.542876,-0.39904 -1.799779,-0.0578 -1.458391,0.7816 0.183061,0.4501 0.806543,0.54143 1.225932,0.46765 0.128521,-0.0226 0.466122,-0.0938 0.474421,-0.26168 0.0061,-0.12394 -0.116826,-0.16153 -0.215712,-0.13836 -0.338242,0.0792 -0.819804,0.25951 -1.034837,-0.14523 m 1.810965,-0.87961 0.511172,0.67265 -0.121033,0.23284 -0.41601,0.51741 c 0.418707,0.0997 0.68731,-0.093 0.879612,-0.46567 h 0.05174 c 0.205492,0.40252 0.430653,0.49154 0.85374,0.49154 -0.08246,-0.24303 -0.542247,-0.50198 -0.531772,-0.75025 0.0095,-0.22431 0.407973,-0.4969 0.531772,-0.67265 -0.143493,-0.0424 -0.438065,-0.0741 -0.557163,0.0341 -0.09135,0.083 -0.192652,0.31824 -0.323746,0.33764 -0.13533,0.02 -0.262727,-0.28766 -0.363232,-0.35612 -0.127719,-0.087 -0.366662,-0.0415 -0.515082,-0.0415 m 8.666761,1.44877 c 0.103058,0 0.36855,0.0476 0.439089,-0.0415 0.05016,-0.0633 0.02661,-0.19369 0.02659,-0.26897 -9.2e-5,-0.28754 -0.07872,-0.61942 0.232838,-0.76764 0.05645,-0.0269 0.117847,-0.05 0.181097,-0.0509 0.442866,-0.007 0.362193,0.52704 0.362193,0.81858 0,0.0771 -0.02776,0.22903 0.04148,0.28386 0.09476,0.0751 0.342525,0.0263 0.450067,7.2e-4 -0.10008,-0.53907 0.181184,-1.40553 -0.646774,-1.42149 -0.10396,-0.002 -0.214897,0.0184 -0.310451,0.0596 -0.137581,0.0594 -0.241185,0.16518 -0.362193,0.2494 -7.04e-4,-0.0851 0.01157,-0.22616 -0.06633,-0.28386 -0.07933,-0.0588 -0.332703,-0.0548 -0.36525,0.0549 -0.04458,0.15016 0.0049,0.33594 0.01533,0.48771 0.01991,0.29068 0.0023,0.58825 0.0023,0.87961 m 3.544318,-0.28458 c 0.108884,0.36639 0.746366,0.4042 0.750257,-0.0259 -0.483343,-5e-5 -0.25672,-0.35953 -0.345405,-0.69851 -0.05951,-0.22744 -0.261293,-0.35758 -0.482465,-0.40194 -0.312119,-0.0626 -0.619241,-0.0506 -0.905483,0.0983 -0.101292,0.0527 -0.372583,0.20435 -0.202735,0.33227 0.177186,0.13346 0.619898,-0.16331 0.849508,-0.15758 0.09876,0.002 0.269176,0.0269 0.286615,0.15251 0.01617,0.11648 -0.189346,0.11122 -0.260744,0.12072 -0.299896,0.0399 -0.662911,-0.006 -0.899949,0.22644 -0.265626,0.25998 -0.006,0.55543 0.279047,0.61708 0.407436,0.0881 0.595549,-0.10701 0.931354,-0.26339 m 2.328383,-1.16419 c 0,0.52464 -0.140338,1.33901 0.569161,1.44101 0.104102,0.015 0.212809,0.009 0.310451,-0.0318 0.147734,-0.0623 0.262259,-0.17539 0.388064,-0.27089 -0.10356,0.76505 -0.809067,0.56254 -1.293547,0.33633 -0.325325,0.5723 0.613582,0.65437 1.008966,0.56878 0.753681,-0.16317 0.724386,-0.79609 0.724386,-1.42252 0,-0.12453 0.06352,-0.51116 -0.04148,-0.59432 -0.08819,-0.0699 -0.316388,-0.0266 -0.424192,-0.0266 0,0.24642 0.07836,0.65677 -0.03769,0.8786 -0.123575,0.23622 -0.46092,0.34361 -0.649988,0.1255 -0.147374,-0.17002 -0.08845,-0.48531 -0.08845,-0.69365 0,-0.0771 0.02775,-0.22902 -0.04149,-0.28386 -0.08819,-0.0699 -0.316388,-0.0266 -0.424192,-0.0266 m 4.320445,1.44877 c 0.103061,0 0.368541,0.0476 0.439086,-0.0415 0.05699,-0.072 0.02659,-0.23461 0.02659,-0.32071 v -0.75026 c 0,-0.0807 0.02705,-0.2271 -0.02659,-0.29483 -0.06132,-0.0774 -0.403557,-0.0746 -0.449343,0.0185 -0.04843,0.0984 -0.01561,0.27234 -0.01561,0.37984 0,0.12933 -0.0014,0.25875 1.01e-4,0.38806 0.0025,0.20706 0.02577,0.41257 0.02577,0.6209 m 2.845803,-0.59503 c -0.105695,-0.0252 -0.300921,-0.0824 -0.403855,-0.036 -0.239041,0.10761 -0.322982,0.40243 -0.656854,0.28468 -0.447271,-0.15774 -0.397879,-0.78547 0.103484,-0.78709 0.224027,-7.2e-4 0.288105,0.21374 0.467989,0.26893 0.09246,0.0284 0.269402,-0.0618 0.359881,-0.0927 -0.253044,-0.75046 -1.749136,-0.63097 -1.717941,0.23284 0.03269,0.90513 1.679621,0.99647 1.847296,0.12935 m 1.112448,-0.84238 c -0.25293,0.0398 -0.77563,0.35305 -0.43389,0.6445 0.19955,0.17018 0.52817,0.14402 0.77021,0.18339 0.0881,0.0143 0.30444,0.0581 0.25025,0.19318 -0.0434,0.10804 -0.18035,0.10537 -0.27612,0.10587 -0.1373,7.3e-4 -0.28405,0.0145 -0.41393,-0.0383 -0.12679,-0.0516 -0.2659,-0.22741 -0.41008,-0.12343 -0.16935,0.12213 0.0356,0.27882 0.15137,0.33443 0.28086,0.13493 0.6278,0.17941 0.93135,0.10575 0.0995,-0.0241 0.20011,-0.0625 0.28355,-0.12288 0.20981,-0.15186 0.2527,-0.46836 0.0258,-0.62889 -0.18326,-0.12964 -0.45676,-0.13399 -0.67153,-0.14982 -0.0687,-0.005 -0.31317,-0.0141 -0.29412,-0.12705 0.0142,-0.0844 0.14779,-0.11261 0.21651,-0.12119 0.19518,-0.0244 0.52592,0.20483 0.69017,0.0946 0.13031,-0.0874 -0.0483,-0.19932 -0.12103,-0.23769 -0.20978,-0.11071 -0.46381,-0.14939 -0.6985,-0.11243 m 5.63986,0 c -0.54282,0.0854 -1.01313,0.656 -0.56372,1.15172 0.22842,0.25196 0.65477,0.32518 0.97766,0.27434 0.5404,-0.0851 1.00432,-0.66138 0.56365,-1.15172 -0.227,-0.25259 -0.65521,-0.32508 -0.97759,-0.27434 m 2.38013,0 c -0.585,0.0921 -1.02768,0.71396 -0.5163,1.20186 0.22581,0.21544 0.63219,0.27113 0.93023,0.2242 0.52297,-0.0823 0.9913,-0.63208 0.58494,-1.12593 -0.22448,-0.2728 -0.66527,-0.35264 -0.99887,-0.30013 m 4.88961,-0.0114 0.0259,1.44877 h 0.4398 v -1.44877 h -0.46567 m -42.4542,0.62091 h -0.853489 c 0.06717,-0.43531 0.771801,-0.42342 0.85374,0 m -17.126555,-0.0259 c -0.102514,0.0303 -0.203919,0.0259 -0.310451,0.0259 -0.107696,0 -0.414803,0.053 -0.4954,-0.0266 -0.08343,-0.0824 0.09903,-0.21597 0.159099,-0.24617 0.248245,-0.12479 0.567668,-0.0192 0.646752,0.24689 m 7.709537,-0.27605 c 0.585583,-0.0999 0.776965,0.69744 0.155226,0.80731 -0.582298,0.10289 -0.778893,-0.70096 -0.155226,-0.80731 m 15.160365,0.27605 c -0.102521,0.0303 -0.203914,0.0259 -0.310451,0.0259 -0.107697,0 -0.414804,0.053 -0.495401,-0.0266 -0.08343,-0.0824 0.09902,-0.21597 0.159097,-0.24617 0.248241,-0.12479 0.567673,-0.0192 0.646755,0.24689 m 29.544603,-0.27607 c 0.59017,-0.10276 0.81944,0.68969 0.18109,0.80725 -0.57207,0.10535 -0.79602,-0.70019 -0.18109,-0.80725 m 2.38012,0 c 0.59038,-0.10279 0.81974,0.68988 0.1811,0.80725 -0.57161,0.10505 -0.79395,-0.70055 -0.1811,-0.80725 m -57.640427,0.0252 c 0.593375,-0.0847 0.730792,0.68535 0.103484,0.76017 -0.570296,0.068 -0.697865,-0.67528 -0.103484,-0.76017 m 30.993373,0.19916 0.02587,0.28458 h 0.724386 l 0.26897,-0.0266 0.04148,-0.25799 h -1.060708 m 7.864763,0.23284 c -0.0072,0.29749 -0.524638,0.51595 -0.764791,0.31413 -0.149174,-0.12538 0.08788,-0.24841 0.19563,-0.25969 0.07761,-0.008 0.15515,-0.012 0.232839,-0.0212 0.111979,-0.0133 0.224229,-0.0191 0.336322,-0.0333 m -48.249283,3.84028 c -0.26756,0.0436 -0.311211,0.37908 -0.02585,0.4418 0.52146,0.1146 1.173191,0.0125 1.707461,0.0125 h 3.570189 11.331467 40.255165 13.685723 3.25974 c 0.2341,0 0.94872,0.11718 1.07138,-0.13087 0.21827,-0.44136 -0.6808,-0.3348 -0.89029,-0.3348 H 90.926765 77.189306 38.693363 26.249447 22.239453 c -0.640816,0 -1.359915,-0.0917 -1.992062,0.0114 m 66.591774,4.08824 c -0.84797,0.15294 -0.50972,1.2604 0.28458,1.1103 0.8374,-0.15825 0.49485,-1.25087 -0.28458,-1.1103 m -37.305882,1.61785 c -0.156281,0.0372 -0.482598,-0.0448 -0.605292,0.0525 -0.07894,0.0625 -0.04533,0.32131 0.042,0.36598 0.139138,0.0712 0.410698,0.0214 0.563293,0.0214 v 2.43187 c 0,0.14239 -0.07913,0.72023 0.08145,0.7679 0.502829,0.14928 0.38423,-0.39646 0.38423,-0.71616 v -2.48361 c 0.295811,0 0.723951,0.0798 1.005133,-0.0112 0.09678,-0.0314 0.133561,-0.25819 0.07644,-0.33546 -0.0512,-0.0693 -0.203001,-0.065 -0.279569,-0.0669 -0.267005,-0.007 -0.534908,-3.8e-4 -0.801999,-3.8e-4 -0.01667,-0.48091 0.0311,-1.07853 0.672645,-1.0325 0.177881,0.0128 0.324394,0.10476 0.491547,0.15289 0.04328,-0.0812 0.130324,-0.21357 0.108234,-0.30933 -0.02473,-0.10721 -0.17161,-0.15857 -0.263459,-0.1887 -0.274873,-0.0902 -0.580217,-0.0982 -0.853741,-0.001 -0.574633,0.20356 -0.681316,0.81223 -0.620902,1.35307 m 30.450082,-1.4229 v 3.72542 0.95722 l 0.0266,0.34557 0.25799,0.0167 0.75026,-1e-4 0.0259,-3.67367 -0.0258,-0.95722 -0.0267,-0.37245 -0.25799,-0.0415 h -0.75026 m 2.01793,0 v 3.72542 0.95722 l 0.0266,0.34595 0.25799,0.0418 0.77613,-0.0256 c -0.004,-0.44183 -0.12924,-0.79526 0.23182,-1.12342 0.0719,-0.0654 0.19159,-0.26997 0.30698,-0.20542 0.0994,0.0556 0.17752,0.20628 0.24767,0.29401 0.23965,0.29971 0.53242,0.84305 0.87366,1.02661 0.10895,0.0586 0.26437,0.0341 0.38368,0.0341 h 0.85374 c -0.0855,-0.20197 -0.26716,-0.37272 -0.4036,-0.54328 -0.2607,-0.32589 -0.51925,-0.6537 -0.77549,-0.9831 -0.0919,-0.11811 -0.41203,-0.41196 -0.38375,-0.56916 0.0236,-0.13098 0.22716,-0.26624 0.31355,-0.36118 0.24369,-0.2678 0.50177,-0.52117 0.75774,-0.77714 0.1164,-0.1164 0.27836,-0.23101 0.33632,-0.38807 -0.34765,0 -0.92379,-0.11041 -1.2418,0.0371 -0.18119,0.084 -0.32335,0.29148 -0.46568,0.42757 -0.3299,0.31546 -0.6623,0.69582 -1.03484,0.95825 l -0.0259,-2.87168 h -1.03484 m -23.594284,3.80303 c -0.06551,0.19364 -0.148972,0.38311 -0.233577,0.56916 -0.03318,0.073 -0.110719,0.17052 -0.07336,0.25393 0.100124,0.22357 0.609123,0.34727 0.824358,0.40242 0.824702,0.21133 1.895857,0.2708 2.586992,-0.32444 0.56256,-0.4845 0.689805,-1.44187 0.07761,-1.94977 -0.393086,-0.32611 -0.940421,-0.41849 -1.4228,-0.53909 -0.311974,-0.078 -0.909825,-0.16532 -0.92752,-0.58537 -0.01863,-0.44219 0.61289,-0.59717 0.95339,-0.56476 0.278486,0.0265 0.568059,0.0832 0.82787,0.18842 0.102511,0.0415 0.294847,0.19758 0.406109,0.17253 0.06283,-0.0142 0.08143,-0.10781 0.101248,-0.1584 0.06658,-0.16994 0.182505,-0.36435 0.214373,-0.54317 0.02236,-0.12546 -0.11117,-0.18078 -0.204311,-0.22623 -0.233246,-0.11382 -0.495638,-0.18256 -0.750257,-0.22857 -0.845113,-0.1527 -1.958776,-0.0714 -2.45596,0.73928 -0.108824,0.17744 -0.177314,0.41268 -0.182496,0.6209 -0.02684,1.0786 0.929395,1.31702 1.784715,1.54834 0.306712,0.083 0.710699,0.12961 0.902028,0.41887 0.238703,0.36088 -0.245733,0.6296 -0.539835,0.68159 -0.709619,0.12544 -1.27414,-0.18841 -1.888578,-0.47564 m 4.294575,0 c -0.05567,0.19474 -0.149494,0.38773 -0.239246,0.56916 -0.03649,0.0738 -0.105025,0.17119 -0.06777,0.2563 0.118314,0.27029 0.773314,0.39491 1.031405,0.44737 0.961879,0.19551 2.432063,0.14831 2.793321,-0.98825 0.04303,-0.13539 0.08029,-0.29694 0.07294,-0.43981 -0.05082,-0.98808 -0.9791,-1.21948 -1.779684,-1.41963 -0.330524,-0.0826 -1.131749,-0.21521 -0.954411,-0.72765 0.09017,-0.26056 0.34182,-0.36389 0.592218,-0.40747 0.60994,-0.10616 1.048379,0.19567 1.603997,0.35572 0.07077,-0.15966 0.342559,-0.63675 0.278432,-0.79928 -0.08618,-0.2184 -0.619744,-0.30938 -0.821721,-0.35393 -0.826433,-0.18227 -1.968424,-0.14456 -2.515029,0.60992 -0.122461,0.16904 -0.200342,0.36421 -0.237231,0.56917 -0.03009,0.1672 -0.02557,0.35161 0.01032,0.51741 0.178428,0.82437 1.052952,1.01198 1.758844,1.18408 0.290199,0.0708 0.699886,0.13784 0.888695,0.39509 0.259312,0.35331 -0.19809,0.64462 -0.500631,0.70253 -0.500046,0.0957 -1.044131,-0.0287 -1.500514,-0.23865 -0.14486,-0.0666 -0.264794,-0.17555 -0.413934,-0.23208 m -33.425231,-3.49201 v 3.54432 0.85374 l 0.02659,0.31491 0.439087,0.0473 c 0.0954,-0.32274 0.02587,-0.75016 0.02587,-1.08657 0,-0.1131 -0.04144,-0.33582 0.04508,-0.4242 0.06155,-0.0629 0.186071,-0.0415 0.265376,-0.0415 h 0.672644 c 0.668076,0 1.413489,-0.0375 1.880154,-0.59505 0.639941,-0.76452 0.344899,-2.02146 -0.560736,-2.42047 -0.821289,-0.36185 -1.91738,-0.19248 -2.794061,-0.19248 m 23.490804,0 c 0.06951,0.38995 0.334073,0.82547 0.49516,1.19007 0.306911,0.69465 0.593933,1.39821 0.894603,2.09554 l 0.413935,0.95723 c 0.06181,0.14327 0.109961,0.33848 0.213356,0.45745 0.06501,0.0748 0.169924,0.0599 0.259588,0.06 0.220345,1.1e-4 0.630206,0.077 0.820764,-0.0514 0.102981,-0.0694 0.145502,-0.25317 0.192074,-0.3625 l 0.395251,-0.93135 c 0.4828,-1.13146 0.990928,-2.25379 1.463584,-3.3891 -0.236013,-0.0698 -0.530642,-0.0259 -0.776128,-0.0259 -0.08763,0 -0.222745,-0.0243 -0.299632,0.0266 -0.192911,0.12762 -0.308054,0.66689 -0.398902,0.8789 -0.342316,0.79881 -0.805448,1.61904 -1.034818,2.45773 h -0.05174 l -1.023857,-2.43186 -0.273284,-0.64678 -0.135942,-0.25799 -0.32614,-0.0266 h -0.82787 m 13.737463,0 v 0.85374 h 1.086579 l 0.398322,0.0415 0.04148,0.26897 v 0.72438 1.91445 l 0.02587,0.95722 1.060708,-0.0259 v -3.88064 h 1.500514 v -0.59503 l -0.04149,-0.23212 -0.294837,-0.0266 h -0.776128 -3.001028 m 22.145513,0.23284 -0.0259,0.90548 h -0.56916 v 0.85375 h 0.56916 c 0,0.70799 -0.21664,1.82771 0.27472,2.40497 0.33261,0.39075 0.92667,0.45274 1.40689,0.37773 0.13057,-0.0204 0.4225,-0.0673 0.48606,-0.20272 0.0764,-0.16272 -0.18127,-0.57432 -0.22735,-0.74315 -0.18866,0.0325 -0.34354,0.12944 -0.54329,0.0979 -0.47999,-0.0757 -0.34499,-0.81983 -0.3367,-1.15866 0.004,-0.1648 -0.08,-0.61273 0.0419,-0.73464 0.13079,-0.1308 0.65843,-0.0415 0.83813,-0.0415 l 0.0259,-0.82787 -0.90548,-0.0259 -0.0259,-0.87961 -1.00897,-0.0259 m -47.861216,0.12936 v 0.77612 c -0.139616,0 -0.494523,-0.0644 -0.604913,0.0266 -0.05153,0.0425 -0.02571,0.12437 -0.02034,0.18035 0.02893,0.30177 0.38441,0.20699 0.625254,0.20699 v 1.91445 c 0,0.38478 0.0066,0.7764 0.311468,1.05592 0.266907,0.24468 0.669735,0.26938 1.007949,0.20012 0.347202,-0.0711 0.500978,-0.20515 0.310451,-0.53166 -0.191906,0.0456 -0.365171,0.16247 -0.56916,0.15251 -0.798039,-0.0389 -0.595032,-1.19438 -0.595032,-1.73063 v -0.72439 c 0,-0.0855 -0.02538,-0.22797 0.04148,-0.29484 0.06276,-0.0628 0.188748,-0.0415 0.26897,-0.0415 0.248224,-1e-5 0.502951,-0.017 0.750256,0 l 0.05174,-0.38806 -1.086579,-0.0259 -0.02587,-0.77612 h -0.465676 m -10.995145,2.43186 -0.02587,-2.38012 c 0.694995,0 1.57193,-0.14387 2.199029,0.21569 0.67695,0.38814 0.664927,1.55988 0,1.95505 -0.607321,0.36093 -1.496647,0.20938 -2.173158,0.20938 m 43.023355,-1.6921 c -0.423068,0.0153 -0.835222,0.0913 -1.190063,0.34124 -0.809591,0.57018 -1.015472,1.79227 -0.420125,2.59267 0.381369,0.51272 1.029001,0.78842 1.66193,0.77279 0.377674,-0.009 0.756181,-0.089 1.086579,-0.27795 0.960603,-0.54949 1.210236,-1.92298 0.483779,-2.77148 -0.405693,-0.47385 -1.01052,-0.67937 -1.6221,-0.65727 m 4.372187,-0.004 c -0.387521,0.0414 -0.751842,0.0862 -1.086579,0.3083 -0.94967,0.62997 -1.129409,2.05418 -0.284201,2.86016 0.481852,0.45948 1.145496,0.57822 1.784715,0.51533 0.258671,-0.0254 0.526172,-0.10767 0.750254,-0.24018 0.23348,-0.13807 0.44566,-0.30715 0.60088,-0.53155 0.89718,-1.29709 -0.21251,-3.07786 -1.765069,-2.91206 m 16.738489,1.04935 0.28458,-0.75026 c -0.72424,-0.29711 -1.63684,-0.46413 -2.38012,-0.12134 -0.55349,0.25525 -0.9184,0.96601 -0.52287,1.51835 0.31197,0.43567 0.94813,0.46113 1.42835,0.54549 0.177,0.0311 0.54419,0.0695 0.59681,0.2825 0.0414,0.16779 -0.17722,0.29794 -0.31223,0.32411 -0.37493,0.0727 -0.83261,0.0117 -1.19006,-0.10864 -0.10374,-0.0349 -0.29933,-0.1718 -0.40675,-0.1427 -0.0715,0.0194 -0.0924,0.12768 -0.11874,0.18584 -0.0633,0.13964 -0.31226,0.4662 -0.1433,0.58591 0.62937,0.44597 1.7939,0.43107 2.47975,0.16275 0.4988,-0.19514 0.83339,-0.7024 0.67813,-1.2402 -0.27088,-0.93838 -1.41362,-0.52743 -2.02294,-0.94952 -0.2023,-0.14015 -0.12733,-0.35599 0.0772,-0.4483 0.25996,-0.11734 0.58168,-0.0854 0.85372,-0.0397 0.23949,0.0403 0.45943,0.17175 0.69851,0.19571 m -57.718041,0.54329 c -0.459847,0 -0.939337,-0.0392 -1.39703,0.004 -0.194716,0.0185 -0.39084,0.0486 -0.56916,0.1334 -0.590015,0.28043 -0.686475,1.10745 -0.250944,1.56527 0.531005,0.55818 1.817357,0.49557 2.217134,-0.20256 h 0.02587 v 0.56916 c 0.101887,0 0.370066,0.0477 0.438988,-0.0415 0.05172,-0.0669 0.0052,-0.1926 0.0018,-0.26897 -0.01016,-0.23198 -10e-4,-0.4663 -10e-4,-0.69851 0,-0.89372 0.242414,-2.1998 -0.853741,-2.53434 -0.483846,-0.14766 -1.067093,-0.0964 -1.526385,0.11054 -0.263705,0.1188 -0.595216,0.24057 -0.327937,0.55275 0.07061,0.0825 0.150894,0.0217 0.224454,-0.0245 0.177302,-0.11136 0.366751,-0.19374 0.56916,-0.2477 0.456757,-0.1218 1.127243,-0.0758 1.360739,0.40992 0.09863,0.20516 0.08803,0.45115 0.08803,0.67264 m 1.785094,-1.55226 v 2.38013 c 0,0.38395 -0.05703,0.87383 0.05174,1.2418 0.100004,-0.006 0.290063,0.0387 0.372454,-0.0266 0.07643,-0.0605 0.04148,-0.24983 0.04148,-0.3356 v -0.93135 c 0,-0.65224 -0.02388,-1.50945 0.698515,-1.80855 0.197613,-0.0818 0.409038,-0.11505 0.620902,-0.13177 v -0.38807 c -0.605306,0.005 -0.941527,0.25077 -1.345288,0.67265 v -0.67265 h -0.439806 m 8.433923,0.011 c -0.296871,0.0404 -0.580122,0.12667 -0.82787,0.30054 -1.47787,1.0372 -0.579717,3.52085 1.241805,3.30299 0.282082,-0.0337 0.56137,-0.11401 0.801999,-0.2694 1.567231,-1.01204 0.661894,-3.58975 -1.215934,-3.33413 m 40.022324,-0.011 v 2.69058 0.67265 l 0.0415,0.23082 0.26896,0.0278 0.75026,-0.0258 -3.8e-4,-1.96619 -0.0255,-1.62987 h -1.03484 m -39.996453,0.42142 c 0.186235,-0.0243 0.388453,-0.013 0.569161,0.0377 1.398527,0.39208 1.185767,2.56716 -0.232839,2.74149 -1.707374,0.20981 -2.002117,-2.56217 -0.336322,-2.77918 m 26.336606,0.38809 c 1.177323,-0.13066 1.372921,1.85758 0.232838,1.98006 -0.203234,0.0218 -0.438763,0.0147 -0.620902,-0.0868 -0.825331,-0.45989 -0.527354,-1.79165 0.388064,-1.89325 m 4.423929,-2e-5 c 1.167238,-0.1257 1.362448,1.85725 0.232838,1.98008 -0.213473,0.0232 -0.457112,0.0115 -0.646773,-0.0978 -0.818427,-0.47181 -0.485705,-1.78537 0.413935,-1.88225 m -41.005423,1.15671 c 0,0.22055 0.04716,0.49963 -0.06553,0.69851 -0.306438,0.54081 -1.287695,0.76474 -1.770184,0.33081 -0.341157,-0.30682 -0.185884,-0.84757 0.231721,-0.97655 0.23166,-0.0716 0.462837,-0.0328 0.698515,-0.0637 0.29419,-0.0386 0.607444,0.011 0.905482,0.011 m -16.063052,6.15061 c -0.146108,0.0625 -0.15641,0.3081 -0.02278,0.39012 0.143962,0.0884 0.401452,0.0599 0.563272,0.056 1.119434,-0.0274 2.241762,-0.0255 3.363221,-0.0255 h 11.69366 40.979551 13.763336 3.41496 c 0.28827,0 0.5944,0.0338 0.87961,0.007 0.097,-0.009 0.22291,0.009 0.29584,-0.07 0.0898,-0.0973 0.0569,-0.29959 -0.0665,-0.35373 -0.20953,-0.0919 -0.57186,-0.0231 -0.79855,-0.0231 H 90.771545 76.956468 36.520205 24.878287 21.540937 20.583713 c -0.130184,0 -0.315215,-0.0329 -0.437011,0.0192 m 42.942948,4.50821 v 5.0707 l 1.034837,-0.0259 v -3.69954 -0.95723 l -0.02659,-0.34658 -0.257993,-0.0415 h -0.750256 m 18.006165,0 c 0,0.573 -0.10432,1.22321 0,1.78509 -0.40327,-0.17048 -0.66744,-0.39636 -1.13832,-0.38473 -0.50509,0.0125 -1.00404,0.2022 -1.33752,0.5917 -0.900637,1.05194 -0.35713,2.91845 1.07881,3.09711 0.29911,0.0372 0.64837,0.0417 0.93135,-0.0789 0.19938,-0.085 0.35247,-0.23255 0.54329,-0.3276 l -0.0241,0.34069 0.2311,0.0431 0.77613,-0.0216 v -3.69954 -0.95723 l -0.0266,-0.34658 -0.28386,-0.0415 h -0.75026 m 3.93238,0 v 5.0707 l 0.9831,-0.0259 -0.0259,-0.36219 c 0.43663,0.19456 0.67857,0.42503 1.19006,0.42503 0.5373,0 1.06508,-0.20727 1.4108,-0.632 0.72636,-0.89236 0.43409,-2.40554 -0.6088,-2.90312 -0.26652,-0.12715 -0.5616,-0.16105 -0.85374,-0.15715 -0.45287,0.006 -0.68437,0.17906 -1.06071,0.39556 v -1.31941 l -0.0415,-0.46496 -0.26897,-0.0266 h -0.72439 m -39.996454,0.31045 v 4.76025 c 1.063996,-0.0237 2.365662,0.20848 3.363221,-0.2409 1.583202,-0.71321 1.946336,-3.0563 0.413935,-4.06154 -1.065272,-0.69881 -2.565268,-0.45781 -3.777156,-0.45781 m 1.146545,0.86935 c 0.160509,-0.079 0.486617,-0.0156 0.66442,-0.0156 0.520839,0 1.057888,0.0505 1.446356,0.44214 0.653096,0.65835 0.476364,2.00415 -0.359777,2.42255 -0.408231,0.20427 -0.900268,0.18808 -1.345288,0.18808 -0.10187,0 -0.368756,0.0473 -0.439089,-0.0415 -0.06653,-0.084 -0.02659,-0.29667 -0.02659,-0.39832 v -1.08658 -1.13832 c 0,-0.0933 -0.04234,-0.32211 0.05997,-0.37245 m 5.165962,2.33864 h 1.759223 l 0.983095,-0.0259 c 0,-0.59606 -0.04571,-1.1674 -0.517797,-1.5995 -1.010186,-0.92465 -2.934652,-0.49899 -3.248359,0.90099 -0.274026,1.22289 0.636844,2.30243 1.877578,2.30251 0.459178,3e-5 0.893422,-0.0197 1.293547,-0.27677 0.08951,-0.0575 0.304514,-0.16902 0.30512,-0.29249 6.29e-4,-0.12846 -0.405364,-0.59155 -0.538975,-0.57575 -0.161299,0.0191 -0.325456,0.19593 -0.490531,0.24545 -0.546659,0.16402 -1.308822,-0.039 -1.422901,-0.67857 m 15.419073,-2.11033 c -0.509242,0.0608 -0.942867,0.13383 -1.345187,0.48795 -0.764714,0.67311 -0.796958,1.97617 -0.05083,2.67868 0.485611,0.45722 1.164356,0.59371 1.809948,0.51443 0.271835,-0.0334 0.54437,-0.12202 0.776128,-0.2693 1.365045,-0.86746 1.027296,-2.98787 -0.56916,-3.35425 -0.191114,-0.0439 -0.42562,-0.0808 -0.620903,-0.0575 m 3.751285,0.45459 -7.39e-4,-0.37245 -0.25797,-0.0415 h -0.724386 v 4.96722 l 1.034837,-0.0259 v -1.68161 c 0.360001,0.20511 0.588488,0.35057 1.008966,0.39535 1.5887,0.16915 2.453241,-1.80533 1.558446,-3.00832 -0.415678,-0.55885 -1.033928,-0.69667 -1.6878,-0.67292 -0.389883,0.0142 -0.634457,0.21407 -0.931354,0.44008 m 4.475671,1.65574 h 1.371159 0.957225 c 0.09653,0 0.29238,0.0368 0.37245,-0.0266 0.08284,-0.0656 0.04152,-0.29338 0.04148,-0.38734 -1.7e-4,-0.43446 -0.17358,-0.84525 -0.476755,-1.1568 -0.960597,-0.98716 -2.925537,-0.58772 -3.27722,0.79461 -0.08724,0.3429 -0.08063,0.74838 0.02135,1.08658 0.311923,1.03437 1.458644,1.40836 2.439074,1.24817 0.270634,-0.0442 0.913352,-0.21411 1.000401,-0.52417 0.03355,-0.11949 -0.390299,-0.6103 -0.511165,-0.61619 -0.137661,-0.007 -0.344697,0.20463 -0.489236,0.24907 -0.555031,0.17062 -1.331027,-0.007 -1.448772,-0.66734 m -15.367332,0 h 1.759223 l 0.983096,-0.0259 c 0,-0.58723 -0.05134,-1.17149 -0.518436,-1.59651 -1.04446,-0.95037 -2.951702,-0.47504 -3.258341,0.94974 -0.264009,1.22669 0.702646,2.25077 1.91407,2.25077 0.4456,0 0.849673,-0.0264 1.241804,-0.264 0.09972,-0.0604 0.319228,-0.16847 0.319894,-0.30526 6.57e-4,-0.13466 -0.387334,-0.59237 -0.527878,-0.57575 -0.161299,0.0191 -0.325452,0.19593 -0.490531,0.24545 -0.546659,0.16402 -1.308822,-0.039 -1.422901,-0.67857 M 54.26762,243.5004 c 0.03359,0.25788 0.203105,0.53362 0.300111,0.77613 0.250221,0.62552 0.529142,1.23985 0.786187,1.8627 0.104424,0.25304 0.212756,0.7644 0.425035,0.94162 0.07151,0.0597 0.187334,0.0415 0.273761,0.0415 0.216457,10e-6 0.598227,0.0724 0.791179,-0.0392 0.08322,-0.0481 0.116372,-0.18761 0.150435,-0.27128 0.08815,-0.21653 0.178229,-0.43192 0.270429,-0.64677 0.37107,-0.86469 0.857966,-1.76089 1.11634,-2.66471 h -0.698472 l -0.297256,0.0266 -0.277873,0.59431 -0.515321,1.21594 -0.280709,0.59503 -0.709496,-1.7851 -0.284419,-0.62018 -0.299631,-0.0266 h -0.750257 m 34.874012,0 c 0.25839,0.89692 0.75655,1.77924 1.12335,2.63883 0.1175,0.27536 0.43399,0.73482 0.41823,1.03484 -0.005,0.0899 -0.0706,0.16753 -0.12647,0.23282 -0.3423,0.40033 -0.67995,0.17187 -1.07879,0.0259 -0.0586,0.17208 -0.38454,0.60249 -0.30701,0.77134 0.0717,0.15615 0.3639,0.21891 0.51398,0.2525 0.52197,0.1168 1.13231,0.0477 1.52198,-0.35353 0.40516,-0.41718 0.58877,-1.07359 0.80668,-1.60166 0.26421,-0.64026 0.53457,-1.2784 0.80899,-1.91445 0.14627,-0.33904 0.36991,-0.72286 0.43254,-1.08658 -0.23228,0 -0.778,-0.10187 -0.97228,0.0266 -0.14935,0.0987 -0.21922,0.4599 -0.28813,0.62018 -0.24947,0.58024 -0.55799,1.17772 -0.73165,1.7851 h -0.0517 l -0.70875,-1.75923 -0.28726,-0.64605 -0.3234,-0.0266 h -0.75026 m -36.064075,1.44877 h -1.759223 c 0.09086,-0.88689 1.73765,-0.91722 1.759223,0 m 8.278697,0 h -1.759223 c 0.09087,-0.88699 1.737606,-0.91902 1.759223,0 m 15.393203,-0.0259 -0.620902,0.0259 h -1.164192 c 0.09306,-0.92785 1.586767,-0.8605 1.785094,-0.0259 m -10.012049,-0.6135 c 1.183392,-0.1435 1.402449,1.85581 0.258709,1.98017 -0.224157,0.0244 -0.477738,0.01 -0.672644,-0.11347 -0.765157,-0.48278 -0.468797,-1.75965 0.413935,-1.8667 m 4.682638,3e-5 c 1.163465,-0.13735 1.387606,1.84288 0.258709,1.97986 -0.199338,0.0242 -0.441246,0.0198 -0.620902,-0.0777 -0.830074,-0.45059 -0.563205,-1.79292 0.362193,-1.90215 m 8.692636,-3e-5 c 1.17788,-0.14283 1.3884,1.85452 0.23283,1.98017 -0.22113,0.024 -0.45241,0.007 -0.64677,-0.10811 -0.79909,-0.47416 -0.46943,-1.76494 0.41394,-1.87206 m 6.75231,8e-5 c 1.1833,-0.15369 1.45375,1.80793 0.31045,1.9768 -0.196,0.029 -0.44321,0.0272 -0.6209,-0.0676 -0.79647,-0.42515 -0.60943,-1.78969 0.31045,-1.90917 m -33.166533,5.08909 v 1.96619 1.34529 0.75026 c 0,0.24751 -0.09355,0.72716 0.01561,0.949 0.04509,0.0916 0.363115,0.0947 0.423478,0.0185 0.05699,-0.0719 0.02659,-0.23461 0.02659,-0.32071 v -0.85374 -2.81993 -0.72439 c 0,-0.0753 0.02359,-0.20561 -0.02659,-0.26896 -0.07054,-0.0891 -0.336031,-0.0415 -0.439089,-0.0415 m 8.201085,2.06968 v -0.93136 c 0,-0.31428 0.08107,-0.7561 -0.0082,-1.05687 -0.03501,-0.11794 -0.389734,-0.12739 -0.441843,-0.0215 -0.04273,0.0868 -0.01561,0.23362 -0.01561,0.3281 v 0.77612 2.71645 0.82787 c 0,0.0861 -0.0304,0.24876 0.02659,0.32071 0.05573,0.0704 0.255128,0.0511 0.334089,0.0377 0.126724,-0.0216 0.104956,-0.15505 0.105,-0.25488 v -0.77612 c 0,-0.85724 -0.04347,-2.1185 1.138321,-2.17214 0.156201,-0.007 0.315257,-0.001 0.465676,0.0449 0.482731,0.14884 0.650955,0.52952 0.705902,0.98895 0.08083,0.67583 -0.09466,1.39885 0.02232,2.06685 0.02347,0.13401 0.328535,0.15244 0.420362,0.0797 0.07972,-0.0631 0.04148,-0.27155 0.04148,-0.36147 v -1.03484 c 0,-0.54271 0.06405,-1.11935 -0.230943,-1.60399 -0.58564,-0.96216 -1.913827,-0.62342 -2.563117,0.0259 m 6.933409,-2.05048 c -0.424098,0.16158 -0.198965,0.84169 0.206967,0.67906 0.416758,-0.16697 0.209608,-0.83776 -0.206967,-0.67906 m -34.460078,0.29125 c 0.116536,0.40455 0.35048,0.80403 0.521032,1.19007 0.372959,0.84417 0.739494,1.69118 1.11245,2.53535 0.176297,0.39904 0.289769,1.15188 0.84901,1.02234 0.13918,-0.0322 0.183337,-0.17997 0.233935,-0.29796 0.122418,-0.28547 0.251204,-0.56803 0.373112,-0.85374 0.509862,-1.1949 1.074179,-2.36841 1.567229,-3.57019 -0.11593,-0.0343 -0.373433,-0.0702 -0.480729,7.2e-4 -0.188619,0.12472 -0.316685,0.6457 -0.40615,0.85302 -0.462855,1.07261 -0.966746,2.12983 -1.415634,3.208 h -0.05174 c -0.07629,-0.32195 -0.258329,-0.62953 -0.391677,-0.93135 -0.266167,-0.60246 -0.530168,-1.20625 -0.791119,-1.81097 -0.163961,-0.37995 -0.30458,-0.97355 -0.575549,-1.28532 -0.102352,-0.11776 -0.401364,-0.06 -0.544168,-0.06 m 22.714676,3.80303 c -0.05114,0.0876 -0.157484,0.2294 -0.134104,0.33622 0.06014,0.27479 0.675183,0.45503 0.910232,0.51143 0.764354,0.18342 1.883332,0.20629 2.377409,-0.5372 0.09642,-0.14509 0.1539,-0.31938 0.176328,-0.49155 0.155557,-1.19411 -1.246011,-1.30065 -2.062189,-1.56116 -0.257835,-0.0823 -0.542134,-0.17539 -0.707876,-0.40513 -0.317592,-0.44022 0.01459,-0.99312 0.475037,-1.14471 0.748886,-0.24655 1.266337,0.0619 1.94032,0.31694 l 0.155225,-0.41393 c -0.674119,-0.44458 -1.626271,-0.54565 -2.380125,-0.25703 -0.631722,0.24185 -1.016028,0.95841 -0.711631,1.60232 0.486909,1.02997 1.982815,0.55694 2.64644,1.31979 0.433253,0.49804 -0.05869,1.05633 -0.56365,1.19627 -0.499395,0.13841 -1.082505,0.0676 -1.552256,-0.144 -0.201595,-0.0908 -0.370615,-0.2399 -0.56916,-0.32826 m 24.473901,-3.46671 -0.0259,0.802 c -0.14826,0 -0.4615,-0.0596 -0.58643,0.0266 -0.08,0.0552 -0.0615,0.32382 0.0255,0.36815 0.13926,0.071 0.40659,0.0192 0.56094,0.0192 v 1.88858 c 0,0.38465 0.0125,0.79848 0.31279,1.08179 0.27555,0.25995 0.76548,0.28793 1.11011,0.1766 0.0946,-0.0306 0.27911,-0.0785 0.31959,-0.18164 0.0412,-0.10487 -0.0629,-0.26492 -0.11262,-0.35237 -0.34523,0.15615 -0.81206,0.32087 -1.05842,-0.10358 -0.12619,-0.2174 -0.10568,-0.58269 -0.10578,-0.82777 -2.1e-4,-0.56154 0.0143,-1.12193 0.0259,-1.68161 h 0.77613 l 0.27995,-0.0415 0.0305,-0.34658 -1.08658,-0.0259 c 0,-0.15655 0.0687,-0.66774 -0.0673,-0.7702 -0.0915,-0.0688 -0.28973,-0.0261 -0.39832,-0.0318 m -35.055111,0.0259 v 0.77612 H 45.88562 c 0,0.0946 -0.0374,0.2916 0.02659,0.36822 0.08978,0.10751 0.464751,0.0457 0.594314,0.0457 v 1.83683 c 0,0.38417 -0.0071,0.78004 0.270726,1.08209 0.276593,0.30075 0.780969,0.34914 1.152175,0.22803 0.09485,-0.0309 0.307303,-0.0917 0.334484,-0.20317 0.02342,-0.0961 -0.06614,-0.21954 -0.101646,-0.30495 -0.32932,0.0494 -0.609394,0.2782 -0.931252,0.0373 -0.235902,-0.17655 -0.232939,-0.44264 -0.232939,-0.70995 0,-0.43253 -0.02587,-0.86095 -0.02587,-1.29355 0,-0.15515 -0.0616,-0.48052 0.02659,-0.61268 0.06218,-0.0932 0.240127,-0.06 0.335605,-0.06 0.15255,0 0.592517,0.0748 0.702188,-0.0415 0.07564,-0.0802 0.04807,-0.24582 0.04807,-0.34658 l -1.086579,-0.0259 c 0,-0.15214 0.07955,-0.6487 -0.04508,-0.74953 -0.09011,-0.0729 -0.335216,-0.0266 -0.446472,-0.0266 m -6.804054,1.57812 c 0.160861,-0.0378 0.288377,-0.15646 0.439805,-0.22176 0.41067,-0.17708 0.932576,-0.25672 1.345289,-0.0415 0.271828,0.14175 0.387094,0.38659 0.428727,0.67719 0.01208,0.0843 0.03721,0.22723 -0.0304,0.29484 -0.116776,0.11677 -0.551052,0.0415 -0.708775,0.0415 -0.730592,0 -1.675569,0.005 -1.750799,0.95722 -0.0765,0.968 1.118954,1.28466 1.854282,1.01685 0.238217,-0.0868 0.509972,-0.2357 0.620903,-0.47356 0.05608,0.13807 -0.04923,0.44534 0.07095,0.54257 0.04239,0.0343 0.111284,0.0263 0.161911,0.0266 0.36404,0.002 0.25869,-0.33819 0.25869,-0.62088 v -1.4229 c 0,-0.37122 -0.0089,-0.77829 -0.246531,-1.08658 -0.409145,-0.53084 -1.221268,-0.58051 -1.823143,-0.41363 -0.176798,0.049 -0.701703,0.19299 -0.757083,0.39255 -0.02853,0.10282 0.09063,0.24505 0.136181,0.33153 m 4.009994,-0.802 v 2.92342 c 0,0.29094 -0.120996,0.70094 0.258709,0.69849 0.05153,-3.3e-4 0.122078,0.008 0.165486,-0.0266 0.102407,-0.0811 0.04148,-0.44762 0.04148,-0.56844 0,-0.53333 -0.05606,-1.10323 0.03787,-1.62987 0.07325,-0.41067 0.337753,-0.77139 0.738259,-0.91326 0.146481,-0.0519 0.351636,-0.0322 0.483324,-0.109 0.08095,-0.0472 0.08192,-0.23862 0.04435,-0.3148 -0.05177,-0.10498 -0.28254,-0.0373 -0.372453,-0.0228 -0.431554,0.07 -0.68173,0.31985 -0.957225,0.63544 0,-0.13306 0.06895,-0.5586 -0.04148,-0.64606 -0.08429,-0.0668 -0.29564,-0.0266 -0.398324,-0.0266 m 8.175213,2.97516 c 0,0.15956 -0.0553,0.44269 0.01561,0.58681 0.04694,0.0954 0.361643,0.0954 0.408585,0 0.103676,-0.21071 0.01561,-0.6624 0.01561,-0.89726 v -1.78509 c 0,-0.23885 0.05974,-0.56923 -0.0082,-0.79817 -0.03355,-0.11302 -0.357901,-0.12036 -0.438229,-0.0549 -0.06587,0.0537 -0.03019,0.16179 -0.02362,0.23212 0.0191,0.2043 0.0044,0.41579 0.0044,0.62091 0,0.82594 0.156063,1.97446 -0.85374,2.27554 -0.140197,0.0418 -0.293812,0.0605 -0.439806,0.0505 -1.267151,-0.0868 -0.983095,-1.67765 -0.983095,-2.55891 0,-0.17401 0.0254,-0.37017 -0.0038,-0.54178 -0.02304,-0.13525 -0.350373,-0.15444 -0.442538,-0.0784 -0.07538,0.0622 -0.01974,0.24983 -0.01932,0.33561 0.0016,0.32768 1.9e-5,0.6554 1.9e-5,0.98309 0,0.51844 -0.08995,1.13443 0.177964,1.604 0.570174,0.99937 1.939811,0.77036 2.590225,0.0259 m 15.884751,-2.58709 v -0.38807 c -0.598158,7e-5 -0.951878,0.24554 -1.345289,0.67265 4.74e-4,-0.17152 0.0907,-0.45118 0.01026,-0.60969 -0.04697,-0.0925 -0.361792,-0.0994 -0.423479,-0.0215 -0.118857,0.15006 -0.02659,0.67389 -0.02659,0.864 v 1.73335 c 0,0.27123 -0.04484,0.5868 0.0059,0.85324 0.0288,0.1512 0.279266,0.17356 0.399803,0.11424 0.09125,-0.0449 0.05997,-0.21235 0.05997,-0.29484 v -0.85374 c 0,-0.71692 -0.06194,-1.60616 0.724386,-1.94361 0.189428,-0.0813 0.392707,-0.10049 0.595032,-0.12606 m 0.931353,-0.38807 v 1.4229 0.95723 c 0,0.34443 -0.0896,0.83088 0.0082,1.16036 0.03355,0.113 0.363683,0.12479 0.430862,0.04 0.113179,-0.1429 0.02659,-0.63184 0.02659,-0.81226 v -1.94032 c 0,-0.20317 0.07436,-0.58506 -0.01561,-0.7679 -0.05474,-0.11123 -0.34584,-0.06 -0.450063,-0.06 m 1.164192,0 c 0.02982,0.29111 0.24729,0.60944 0.362193,0.87962 0.290435,0.68291 0.58257,1.36724 0.887519,2.0438 0.15251,0.33835 0.23426,0.83015 0.715361,0.6837 0.226585,-0.069 0.371263,-0.66024 0.459531,-0.8648 0.257199,-0.59605 0.517406,-1.19127 0.779778,-1.78509 0.131705,-0.29809 0.316452,-0.61464 0.391677,-0.93136 -0.520507,-0.15386 -0.568219,0.26082 -0.744288,0.64678 -0.257579,0.56461 -0.498268,1.13814 -0.745248,1.70748 -0.08265,0.19053 -0.157601,0.54499 -0.3473,0.64677 -0.169064,-0.73061 -0.605952,-1.45847 -0.901592,-2.14728 -0.09801,-0.22836 -0.196343,-0.67314 -0.382594,-0.83813 -0.10066,-0.0892 -0.348474,-0.0415 -0.475037,-0.0415 m 4.320445,0.82787 h 0.02587 c 0.429087,-0.36571 1.118911,-0.54402 1.655739,-0.32458 0.279774,0.11436 0.711603,0.65816 0.490828,0.989 -0.09002,0.13492 -0.550806,0.06 -0.697795,0.06 -0.640457,0 -1.62611,-0.0464 -1.751435,0.802 -0.136543,0.92429 0.716112,1.34313 1.518597,1.24581 0.339764,-0.0412 0.778262,-0.21905 0.931353,-0.5473 h 0.02587 c 0,0.12784 -0.05526,0.42433 0.02659,0.52768 0.07661,0.0967 0.362275,0.0401 0.464957,0.0156 -0.147969,-0.62152 -0.02587,-1.40452 -0.02587,-2.0438 0,-0.47187 -0.05122,-0.9382 -0.439806,-1.25917 -0.459512,-0.37955 -1.224063,-0.35618 -1.759223,-0.17625 -0.157285,0.0529 -0.577643,0.17306 -0.62773,0.35363 -0.03046,0.10981 0.102624,0.27394 0.162053,0.3574 m 4.734377,-0.81686 c -0.29696,0.0404 -0.5937,0.11611 -0.823458,0.32035 -0.371888,0.33056 -0.443993,0.96507 -0.05381,1.31596 0.427441,0.3844 1.088621,0.31567 1.601661,0.49648 0.24784,0.0873 0.49294,0.27724 0.42609,0.57265 -0.15137,0.66898 -1.23191,0.51215 -1.69377,0.35686 -0.11822,-0.0397 -0.41954,-0.27287 -0.533205,-0.20609 -0.366608,0.21543 0.01191,0.45996 0.222757,0.54744 0.460678,0.19116 1.008668,0.2587 1.500518,0.16938 0.70003,-0.12712 1.44632,-0.98172 0.72205,-1.59158 -0.42426,-0.35723 -1.07037,-0.31906 -1.57579,-0.48546 -0.24342,-0.0801 -0.45827,-0.24508 -0.44235,-0.5239 0.0394,-0.68919 1.05658,-0.60898 1.50305,-0.4729 0.1076,0.0328 0.37384,0.22059 0.47507,0.16031 0.26093,-0.15539 0.11564,-0.39161 -0.087,-0.47378 -0.37728,-0.15298 -0.83503,-0.2411 -1.24181,-0.18572 m 7.4767,1.54125 c -0.45136,0 -0.9219,-0.0384 -1.37116,0.004 -0.20676,0.0197 -0.40558,0.0467 -0.59503,0.13772 -0.57394,0.27572 -0.69005,1.07516 -0.2732,1.53719 0.52439,0.58119 1.83282,0.53121 2.23939,-0.17879 h 0.0259 v 0.56916 c 0.10291,0 0.36876,0.0476 0.43909,-0.0415 0.0587,-0.0743 0.009,-0.21076 0.003,-0.29484 -0.0152,-0.2224 -0.002,-0.44975 -0.002,-0.67264 0,-0.89537 0.2441,-2.1993 -0.85374,-2.53434 -0.48386,-0.14766 -1.06708,-0.0964 -1.52639,0.11054 -0.26385,0.11885 -0.59366,0.24237 -0.32793,0.55275 0.062,0.0724 0.12971,0.0346 0.1986,-0.008 0.19014,-0.11684 0.37828,-0.20672 0.59501,-0.26451 0.43619,-0.11632 1.08228,-0.0833 1.33581,0.35817 0.12513,0.21791 0.11296,0.48246 0.11296,0.72439 m 1.13832,-1.52639 c 0.0815,0.28299 0.24833,0.55482 0.3619,0.82787 0.28466,0.68447 0.57836,1.36924 0.88588,2.04381 0.15956,0.35003 0.23413,0.87246 0.74149,0.70957 0.0967,-0.031 0.12557,-0.13406 0.16399,-0.21802 0.10151,-0.22187 0.19227,-0.44893 0.28959,-0.67265 0.39025,-0.89715 0.80779,-1.7856 1.17908,-2.69058 -0.11927,-0.0353 -0.40119,-0.0773 -0.48961,0.0341 -0.21402,0.26965 -0.32736,0.73498 -0.46372,1.05248 -0.272,0.63328 -0.64115,1.27842 -0.83176,1.94032 h -0.0517 c -0.16645,-0.70235 -0.59076,-1.40619 -0.87572,-2.06967 -0.11626,-0.27068 -0.21282,-0.70431 -0.41004,-0.92313 -0.0981,-0.1089 -0.37379,-0.0712 -0.49934,-0.0341 m 6.51948,3.05277 c -0.0259,0.10889 -0.0857,0.43648 0.0156,0.5167 0.0882,0.0699 0.31638,0.0266 0.42419,0.0266 v -1.99206 c 0,-0.42929 -0.004,-0.87845 -0.31315,-1.21583 -0.47261,-0.51561 -1.32731,-0.48694 -1.93762,-0.27578 -0.14111,0.0488 -0.57604,0.17585 -0.59209,0.3557 -0.008,0.0946 0.1234,0.3079 0.23102,0.28541 0.19145,-0.04 0.37104,-0.21753 0.56804,-0.27648 0.71602,-0.21428 1.57617,-0.022 1.57661,0.86825 1.3e-4,0.26586 -0.38541,0.18112 -0.56764,0.18112 -0.53685,0 -1.27178,-0.10122 -1.67685,0.33736 -0.57418,0.62171 -0.12711,1.50507 0.61614,1.68319 0.69137,0.16568 1.12027,-0.11703 1.65574,-0.49417 M 41.927751,252.8131 c 0,0.22679 0.03487,0.49083 -0.07552,0.69852 -0.291775,0.54897 -1.307584,0.76683 -1.782401,0.32752 -0.361004,-0.33401 -0.139228,-0.85578 0.27979,-0.9815 0.207826,-0.0624 0.432198,-0.0456 0.646773,-0.066 0.306579,-0.0292 0.623069,0.0215 0.931354,0.0215 m 34.460077,0 c 0,0.22517 0.03702,0.49385 -0.07682,0.69852 -0.299221,0.53796 -1.342642,0.79182 -1.803234,0.30558 -0.333227,-0.35178 -0.09587,-0.8595 0.327795,-0.96844 0.198062,-0.0509 0.417239,-0.0453 0.620903,-0.0592 0.309383,-0.0212 0.621224,0.0236 0.931353,0.0236 m 10.012048,0 c 0,0.22137 0.0441,0.49712 -0.0662,0.69852 -0.29888,0.54605 -1.29186,0.76043 -1.76955,0.33081 -0.35497,-0.31925 -0.1715,-0.86316 0.25759,-0.98415 0.22017,-0.0621 0.44781,-0.0371 0.67265,-0.0637 0.29679,-0.035 0.60656,0.0185 0.90548,0.0185 m 7.63193,0 c 0,0.22017 0.0411,0.49998 -0.0738,0.69852 -0.31664,0.54686 -1.32905,0.78122 -1.80623,0.30195 -0.32673,-0.32818 -0.094,-0.84413 0.30193,-0.95529 0.20938,-0.0588 0.43183,-0.0462 0.64677,-0.0667 0.30658,-0.0292 0.62307,0.0215 0.93136,0.0215 m -73.369959,5.89858 c -0.304108,0.11526 -0.59764,0.37073 -0.82787,0.59541 -0.637655,0.62226 -0.850832,1.59737 -0.176605,2.29981 0.553278,0.57644 2.005348,0.7842 2.53086,0.0541 h 0.02587 c 0.125729,0.17849 0.299728,0.364 0.517418,0.42013 0.645352,0.1664 1.431749,-0.33677 1.215934,-1.0669 h -0.02587 c -0.06202,0.19607 -0.05736,0.55524 -0.261425,0.66801 -0.293786,0.16235 -0.751358,-0.52291 -0.75313,-0.77149 -0.0015,-0.20535 0.198657,-0.48562 0.24745,-0.69852 0.108982,-0.47555 -0.0032,-1.12198 0.234615,-1.55215 0.117634,-0.21276 0.402793,-0.17214 0.506619,-0.3623 -0.472571,0 -1.099809,-0.10787 -1.552256,0.0259 v 0.0517 c 0.199639,0.0561 0.432192,0.0539 0.586528,0.21248 0.158653,0.16305 0.171716,0.37811 0.196986,0.58952 0.06649,0.55622 -0.08047,1.12121 -0.291966,1.62987 -0.37185,-0.52232 -0.624065,-1.20948 -0.911871,-1.78509 -0.07712,-0.15424 -0.312602,-0.44447 -0.294241,-0.61859 0.01356,-0.12861 0.231187,-0.24455 0.31057,-0.33902 0.241165,-0.287 0.39137,-0.73031 0.195111,-1.08618 -0.370147,-0.67117 -1.263967,-0.19636 -1.547904,0.28456 -0.294307,0.49849 -0.06055,0.95254 0.07518,1.44878 m 0.853741,-0.43981 c -0.100703,-0.17254 -0.189027,-0.3554 -0.257312,-0.54329 -0.07261,-0.19979 -0.142301,-0.43472 -0.0851,-0.64677 0.07994,-0.29636 0.422044,-0.42004 0.678633,-0.25885 0.555012,0.34865 0.179938,1.27771 -0.336222,1.44891 m 15.910621,-0.10348 c -0.156276,0.0372 -0.482603,-0.0448 -0.605292,0.0525 -0.07895,0.0626 -0.04533,0.32131 0.042,0.36598 0.139135,0.0712 0.410699,0.0214 0.563291,0.0214 v 2.48361 c 0,0.3197 -0.118597,0.86545 0.384232,0.71616 0.16057,-0.0477 0.08144,-0.62551 0.08144,-0.7679 v -2.43187 c 0.295813,0 0.723948,0.0799 1.005134,-0.0112 0.09678,-0.0314 0.133559,-0.2582 0.07643,-0.33547 -0.0512,-0.0692 -0.203004,-0.065 -0.27957,-0.0669 -0.267004,-0.007 -0.534909,-3.8e-4 -0.801998,-3.8e-4 -0.01667,-0.48091 0.0311,-1.07854 0.672644,-1.0325 0.177881,0.0128 0.324397,0.10475 0.491547,0.15289 0.04328,-0.0812 0.130326,-0.21358 0.108235,-0.30934 -0.02473,-0.10721 -0.171609,-0.15856 -0.26346,-0.1887 -0.274877,-0.0902 -0.580215,-0.0982 -0.853741,-10e-4 -0.573986,0.20332 -0.681376,0.81164 -0.620902,1.35308 m 9.546373,-1.4229 v 4.00999 c 0,0.29165 -0.07467,0.70004 0.0082,0.97926 0.03332,0.11225 0.335887,0.11828 0.415972,0.0549 0.06087,-0.0482 0.04145,-0.16443 0.04148,-0.23212 v -0.6209 c 0,-0.78995 -0.166847,-1.87988 0.750257,-2.23877 0.120759,-0.0473 0.258324,-0.0827 0.388064,-0.0886 0.140086,-0.006 0.278425,-0.002 0.413935,0.0359 1.025401,0.28899 0.750257,1.63019 0.750257,2.44666 0,0.29171 -0.123452,0.725 0.258709,0.72439 0.05784,-10e-5 0.142508,0.0121 0.191358,-0.0266 0.07972,-0.0631 0.04148,-0.27155 0.04148,-0.36148 v -1.03483 c 0,-0.51655 0.0635,-1.11705 -0.219066,-1.57813 -0.598202,-0.97615 -1.905944,-0.66905 -2.574995,0 v -1.47464 l -0.02659,-0.55355 -0.439089,-0.0415 m 11.97824,5.04483 c -0.341625,-0.54627 -0.808874,-1.0431 -1.204953,-1.55226 -0.08702,-0.11186 -0.408074,-0.41909 -0.379818,-0.56477 0.02553,-0.13166 0.275984,-0.2996 0.368837,-0.39245 0.338565,-0.33857 0.786073,-0.67191 1.060708,-1.06071 -0.543614,-0.12943 -0.799163,0.19323 -1.164191,0.54227 -0.331184,0.31668 -0.673674,0.62236 -1.008967,0.93469 -0.169146,0.15756 -0.315428,0.3466 -0.517418,0.46336 v -1.44877 c 0,-0.59334 0.09568,-1.27708 -0.0038,-1.86119 -0.02287,-0.13426 -0.358464,-0.16048 -0.435255,-0.0635 -0.05018,0.0633 -0.02659,0.19367 -0.02659,0.26897 v 0.69851 2.66471 1.03483 c 0,0.0898 -0.03898,0.2979 0.05996,0.34658 0.07893,0.0388 0.345475,0.0463 0.390101,-0.0444 0.121599,-0.24712 -0.04264,-0.629 0.03433,-0.89726 0.05772,-0.20117 0.320582,-0.37028 0.472823,-0.50252 0.08394,-0.0729 0.254592,-0.30771 0.383652,-0.26568 0.137749,0.0449 0.265057,0.29689 0.352353,0.40601 0.392207,0.49028 0.878383,1.51224 1.61825,1.29355 m 1.190063,0.0259 v -1.50052 c 0,-0.37128 -0.0064,-0.77725 0.175885,-1.11245 0.368184,-0.67699 1.480751,-0.83695 1.951001,-0.18109 0.363661,0.5072 0.201497,1.42617 0.201497,2.01793 0,0.16585 -0.07805,0.60253 0.02659,0.73464 0.07054,0.0891 0.336035,0.0415 0.439089,0.0415 v -1.68161 c 0,-0.36456 0.02673,-0.73906 -0.105183,-1.08658 -0.455814,-1.20085 -1.950362,-0.97136 -2.688877,-0.23284 v -0.90548 c 0,-0.32182 0.0832,-0.7748 -0.0082,-1.08275 -0.03355,-0.113 -0.363687,-0.12479 -0.430865,-0.04 -0.05699,0.0719 -0.02659,0.23461 -0.02659,0.32071 v 0.85374 2.81993 0.72439 c 0,0.0753 -0.02359,0.20561 0.02659,0.26896 0.07054,0.0891 0.336031,0.0415 0.439089,0.0415 m 17.178297,-3.00103 v -0.93135 c 0,-0.31427 0.08107,-0.75612 -0.0082,-1.05688 -0.03502,-0.11795 -0.389732,-0.12738 -0.44184,-0.0215 -0.04274,0.0868 -0.01561,0.23362 -0.01561,0.3281 v 0.75026 2.74231 0.82787 c 0,0.0861 -0.03039,0.24877 0.02659,0.32071 0.05573,0.0704 0.255128,0.0511 0.334086,0.0377 0.126721,-0.0216 0.104955,-0.15505 0.105,-0.25487 v -0.77613 c 0,-0.85723 -0.04347,-2.11849 1.138324,-2.17214 0.1562,-0.007 0.31525,-10e-4 0.46567,0.0449 0.49967,0.15405 0.65033,0.54545 0.7059,1.01481 0.079,0.66733 -0.0932,1.38149 0.0223,2.04099 0.0235,0.13401 0.32854,0.15243 0.42036,0.0797 0.0797,-0.0632 0.0415,-0.27155 0.0415,-0.36148 v -1.03483 c 0,-0.54272 0.0641,-1.11936 -0.23095,-1.604 -0.5859,-0.96258 -1.914743,-0.6225 -2.563114,0.0259 m 11.952364,3.00103 c -0.0818,-0.19335 -0.24867,-0.35287 -0.37708,-0.51742 l -0.80755,-1.03484 c -0.0903,-0.11527 -0.42923,-0.44065 -0.40014,-0.59064 0.0255,-0.13166 0.27599,-0.2996 0.36884,-0.39245 0.33953,-0.33953 0.78546,-0.66997 1.06071,-1.06071 -0.54362,-0.12943 -0.79916,0.19323 -1.16419,0.54227 -0.33119,0.31668 -0.67368,0.62236 -1.00897,0.93469 -0.16915,0.15756 -0.31543,0.3466 -0.51742,0.46336 v -1.44877 -0.87962 c 0,-0.2665 0.10176,-0.78809 -0.0156,-1.02661 -0.0476,-0.0968 -0.38682,-0.0968 -0.43445,0 -0.0427,0.0868 -0.0156,0.23362 -0.0156,0.3281 v 0.75026 2.71644 0.87962 c 0,0.0815 -0.0315,0.25195 0.0415,0.30973 0.0713,0.0565 0.36425,0.0567 0.40858,-0.0334 0.1216,-0.24712 -0.0426,-0.629 0.0343,-0.89726 0.0604,-0.21063 0.34041,-0.38524 0.4987,-0.5248 0.0814,-0.0717 0.21201,-0.25727 0.33401,-0.24829 0.16799,0.0124 0.42292,0.46574 0.52482,0.592 0.20746,0.25703 0.40901,0.51864 0.61583,0.77612 0.0881,0.1097 0.18267,0.26602 0.31081,0.3317 0.14528,0.0745 0.38328,0.0305 0.54291,0.0305 m 0.75026,-5.0707 v 1.96619 1.34528 0.75026 c 0,0.24752 -0.0936,0.72717 0.0156,0.949 0.0451,0.0916 0.3631,0.0947 0.42347,0.0185 0.057,-0.0719 0.0266,-0.2346 0.0266,-0.32071 v -0.85374 -2.81993 -0.72438 c 0,-0.0753 0.0236,-0.20561 -0.0266,-0.26897 -0.0705,-0.0891 -0.33602,-0.0415 -0.43909,-0.0415 m -64.315128,5.04483 0.465677,0.0259 0.02587,-1.55226 c 0.581488,0 1.182071,0.0428 1.759223,-0.0333 1.239678,-0.16349 1.914035,-1.66554 1.030346,-2.63097 -0.528573,-0.57747 -1.375478,-0.54367 -2.091054,-0.54367 h -0.879612 c -0.08151,0 -0.251956,-0.0315 -0.309732,0.0415 -0.06024,0.0761 -0.02659,0.25523 -0.02659,0.34658 v 0.87961 c 0,1.15664 0.02587,2.3115 0.02587,3.46671 m 16.945459,-0.93136 c -0.05258,0.0892 -0.160914,0.22646 -0.134746,0.33622 0.06638,0.27847 0.670588,0.45378 0.910873,0.51144 0.764658,0.18349 1.883061,0.20669 2.37741,-0.53721 0.103329,-0.15549 0.174303,-0.35625 0.182796,-0.54329 0.0067,-0.14783 -9.79e-4,-0.29758 -0.04488,-0.4398 -0.244662,-0.79267 -1.330328,-0.86696 -1.99791,-1.06073 -0.278195,-0.0807 -0.584761,-0.18879 -0.754129,-0.43978 -0.305433,-0.45264 0.07326,-0.9814 0.521291,-1.12904 0.713484,-0.23512 1.277162,0.0524 1.914448,0.32704 0.04886,-0.0927 0.159837,-0.27863 0.134105,-0.38535 -0.0213,-0.0883 -0.139555,-0.12864 -0.211717,-0.16425 -0.230492,-0.11376 -0.472375,-0.18419 -0.724386,-0.2316 -0.73861,-0.13896 -1.752039,-0.0191 -2.126324,0.72945 -0.06887,0.13775 -0.09612,0.28797 -0.113069,0.43981 -0.129477,1.15995 1.389363,1.27848 2.16178,1.53501 0.25028,0.0831 0.489814,0.18154 0.64827,0.40533 0.324255,0.45795 -0.112626,0.95407 -0.544786,1.09506 -0.517065,0.1687 -1.138359,0.10492 -1.629869,-0.11997 -0.19972,-0.0914 -0.368228,-0.25062 -0.56916,-0.32834 m 29.880923,0 c -0.03983,0.0952 -0.14992,0.22982 -0.130808,0.33622 0.01794,0.0999 0.131054,0.15887 0.20842,0.20827 0.232649,0.14854 0.481992,0.24858 0.750257,0.31225 0.762125,0.18087 1.918365,0.17859 2.368106,-0.59803 0.08724,-0.15064 0.126753,-0.32019 0.14529,-0.49155 0.123367,-1.14044 -1.277775,-1.27871 -2.07359,-1.51149 -0.257541,-0.0753 -0.532861,-0.18304 -0.700372,-0.40397 -0.329469,-0.43455 0.02108,-0.98348 0.467534,-1.1408 0.459847,-0.16203 0.971372,-0.12113 1.422901,0.0504 0.189074,0.0718 0.352182,0.20303 0.543289,0.26353 0.03141,-0.10834 0.13792,-0.27498 0.108954,-0.38695 -0.02599,-0.10045 -0.153407,-0.14811 -0.238308,-0.18579 -0.23882,-0.10598 -0.491876,-0.17994 -0.750257,-0.2182 -0.765807,-0.1134 -1.787052,0.0186 -2.109416,0.84268 -0.05628,0.14387 -0.06546,0.28707 -0.06364,0.4398 0.01752,1.4723 2.064899,0.97169 2.762581,1.7852 0.271581,0.31667 0.121402,0.79086 -0.20146,1.00615 -0.411181,0.27419 -0.982009,0.27313 -1.448772,0.17643 -0.41072,-0.0851 -0.687639,-0.34066 -1.060708,-0.48417 m -46.335362,-1.00804 v -2.38013 c 0.674733,0 1.56698,-0.15073 2.173158,0.20938 0.689023,0.40933 0.694491,1.59445 -0.02587,1.98127 -0.616311,0.33094 -1.472397,0.18948 -2.147287,0.18948 m 4.216961,-1.65574 v 2.92341 c 0,0.29094 -0.120997,0.70094 0.258709,0.6985 0.05152,-3.4e-4 0.122088,0.008 0.165487,-0.0266 0.102405,-0.0811 0.04148,-0.44762 0.04148,-0.56844 0,-0.53777 -0.0676,-1.12744 0.04308,-1.65574 0.07151,-0.34135 0.263699,-0.65091 0.577823,-0.81949 0.246993,-0.13255 0.813516,-0.0552 0.690292,-0.47023 -0.04312,-0.14525 -0.302841,-0.0676 -0.405712,-0.0446 -0.367113,0.0821 -0.76227,0.29135 -0.905482,0.66164 l -0.06735,-0.67192 -0.398325,-0.0266 m 3.90651,0.011 c -0.297635,0.0405 -0.578895,0.12749 -0.827869,0.30047 -1.484446,1.03134 -0.575611,3.52043 1.241804,3.30307 0.282079,-0.0337 0.561376,-0.11402 0.801999,-0.2694 1.567446,-1.01222 0.662032,-3.58977 -1.215934,-3.33414 m 17.359394,1.95519 h 1.914449 l 1.060708,-0.0259 c 0,-0.60868 -0.175378,-1.19943 -0.672644,-1.5906 -0.931673,-0.7329 -2.371539,-0.26045 -2.705088,0.86621 -0.364246,1.23035 0.488904,2.35033 1.747863,2.40498 0.378887,0.0164 0.768735,-0.0973 1.086579,-0.30163 0.08943,-0.0575 0.292855,-0.16114 0.265158,-0.29248 -0.01758,-0.0834 -0.144965,-0.24381 -0.240304,-0.23121 -0.107876,0.0143 -0.218036,0.1476 -0.309434,0.20366 -0.154348,0.0947 -0.339926,0.14947 -0.517419,0.1807 -0.775452,0.13642 -1.593828,-0.38717 -1.629868,-1.21376 m 12.5474,-1.16419 c 0.160854,-0.0378 0.28838,-0.15647 0.439806,-0.22176 0.398375,-0.17178 0.884832,-0.24628 1.293547,-0.066 0.290893,0.12829 0.4291,0.3738 0.476275,0.67584 0.01478,0.0946 0.0513,0.27155 -0.04469,0.3356 -0.132159,0.0882 -0.457526,0.0266 -0.612679,0.0266 -0.650288,0 -1.709613,-0.0629 -1.806474,0.82787 -0.09958,0.91584 0.738376,1.33572 1.547765,1.21929 0.330884,-0.0476 0.756725,-0.22768 0.905482,-0.54664 0.0477,0.13442 -0.04403,0.44954 0.07095,0.54257 0.04239,0.0343 0.111288,0.0262 0.161912,0.0266 0.364037,0.002 0.25869,-0.33821 0.25869,-0.62088 v -1.42291 c 0,-0.37122 -0.0089,-0.77828 -0.246532,-1.08657 -0.40609,-0.52688 -1.224252,-0.58629 -1.823142,-0.41292 -0.177459,0.0514 -0.701257,0.19066 -0.757085,0.39183 -0.02853,0.10282 0.09063,0.24506 0.136182,0.33154 m 4.009994,-0.802 v 2.92341 c 0,0.28789 -0.1206,0.70048 0.25871,0.6985 0.0515,-2.7e-4 0.122116,0.008 0.165483,-0.0266 0.10241,-0.0811 0.04148,-0.44762 0.04148,-0.56844 0,-0.52896 -0.04382,-1.07981 0.03361,-1.604 0.06074,-0.41123 0.321971,-0.77795 0.716642,-0.92542 0.153786,-0.0575 0.371282,-0.0422 0.509195,-0.12271 0.08305,-0.0485 0.07994,-0.23795 0.04076,-0.31481 -0.0608,-0.11927 -0.297256,-0.0385 -0.394733,-0.0185 -0.42279,0.0864 -0.657069,0.31702 -0.931354,0.63122 0,-0.13306 0.06895,-0.55859 -0.04148,-0.64605 -0.08429,-0.0668 -0.29564,-0.0266 -0.398322,-0.0266 m 15.936491,2.97515 c 0,0.15957 -0.0553,0.44269 0.0156,0.58681 0.0469,0.0954 0.36163,0.0954 0.40857,0 0.10368,-0.2107 0.0156,-0.6624 0.0156,-0.89726 v -1.78509 c 0,-0.23884 0.0597,-0.56924 -0.008,-0.79817 -0.0339,-0.11416 -0.36041,-0.11935 -0.44184,-0.0549 -0.063,0.0499 -0.0394,0.16433 -0.0305,0.23212 0.0268,0.2048 0.0149,0.41458 0.0149,0.6209 0,0.82902 0.1541,2.00582 -0.87961,2.28293 -0.14128,0.0379 -0.29398,0.0552 -0.43981,0.0411 -1.24977,-0.12086 -0.95722,-1.69744 -0.95722,-2.5827 0,-0.16578 0.024,-0.35239 -0.004,-0.5159 -0.0231,-0.13568 -0.35001,-0.15393 -0.44262,-0.0784 -0.0802,0.0654 -0.0204,0.24693 -0.0193,0.3356 0.004,0.3276 1e-4,0.65547 1e-4,0.9831 0,0.53065 -0.0897,1.15236 0.19339,1.62986 0.57956,0.97749 1.93476,0.73265 2.5748,0 m 9.8827,0.10349 c -0.0259,0.10888 -0.0857,0.43648 0.0156,0.5167 0.0882,0.0699 0.31638,0.0266 0.42419,0.0266 v -1.96619 c 0,-0.4373 0.003,-0.89726 -0.31315,-1.24171 -0.47071,-0.51353 -1.32937,-0.48816 -1.93762,-0.27575 -0.13666,0.0477 -0.57654,0.18431 -0.59209,0.35596 -0.009,0.0945 0.12364,0.30757 0.23102,0.28512 0.19144,-0.04 0.37105,-0.21753 0.56804,-0.27648 0.71518,-0.21402 1.57617,-0.0209 1.57661,0.86826 1.3e-4,0.26585 -0.38541,0.18111 -0.56764,0.18111 -0.53707,0 -1.27171,-0.10289 -1.67683,0.33736 -0.57184,0.62143 -0.12571,1.50537 0.61612,1.68319 0.69134,0.16573 1.1203,-0.11705 1.65574,-0.49416 m -59.710108,-2.65722 c 0.186235,-0.0243 0.388453,-0.013 0.569161,0.0377 1.398516,0.39208 1.18578,2.56716 -0.232839,2.74147 -1.705997,0.20963 -2.001079,-2.56229 -0.336322,-2.77916 m 19.843003,1.13083 h -2.50948 c 0.032,-1.50222 2.445403,-1.48804 2.50948,0 m -33.476982,-0.95722 c 0.194708,0.41091 0.410179,0.81017 0.614494,1.21593 0.135378,0.26886 0.279312,0.53271 0.413955,0.802 0.09751,0.19501 0.376926,0.5324 0.375408,0.75016 -7.57e-4,0.10854 -0.131004,0.17647 -0.213795,0.22018 -0.235729,0.12445 -0.510778,0.19985 -0.750256,0.0524 -0.207484,-0.12777 -0.358957,-0.3312 -0.491449,-0.53117 -0.458615,-0.69219 -1.018295,-2.05942 0.05164,-2.50948 m 45.739802,1.37116 c 0,0.22516 0.03702,0.49385 -0.07681,0.69851 -0.300684,0.5406 -1.301351,0.77141 -1.781103,0.32752 -0.33726,-0.31205 -0.159435,-0.85444 0.253919,-0.97654 0.230968,-0.0682 0.463232,-0.0335 0.698515,-0.0644 0.291528,-0.0383 0.609647,0.0149 0.905482,0.0149 m 27.578415,0 c 0,0.22517 0.037,0.49385 -0.0768,0.69851 -0.31031,0.5579 -1.28998,0.75569 -1.7811,0.32263 -0.36381,-0.3208 -0.12124,-0.85629 0.27979,-0.97661 0.22214,-0.0666 0.44627,-0.0262 0.67264,-0.0555 0.28822,-0.0374 0.61173,0.011 0.90549,0.011 m -54.45831,0.94824 c -0.432759,0.13501 -0.242238,0.81725 0.181097,0.68668 0.451165,-0.13916 0.249541,-0.82103 -0.181097,-0.68668 z"
       id="path2" /></g></svg>
